<?xml version="1.0" encoding="utf-8"?>
<!-- Generator: Adobe Illustrator 24.0.0, SVG Export Plug-In . SVG Version: 6.00 Build 0)  -->
<svg version="1.1" xmlns="http://www.w3.org/2000/svg" xmlns:xlink="http://www.w3.org/1999/xlink" x="0px" y="0px"
	 viewBox="0 0 1920 1080" style="enable-background:new 0 0 1920 1080;" xml:space="preserve">
<style type="text/css">
	.st0{fill:#484750;}
	.st1{fill:none;stroke:#FDE698;stroke-width:2;stroke-miterlimit:10;}
</style>
<g id="Capa_2">
	<rect class="st0" width="1920" height="1080"/>
</g>
<g id="Capa_3">
	<path class="st1" d="M382.6,1240.6c-12.2,1.1-24.5,2.9-36.7,3.2c-30.9,0.6-61.8,0.6-92.7,0.8c-1.7,0-3.5-0.2-6.7-0.4
		c1.4-53,2.7-106,4.2-160.2c-11.4,0.6-22.7,1.3-31.5,1.7c-4.1,11.7-7.7,21.7-11.2,31.8c2.3-8.2,3.2-16.1-5.3-21.6
		c1.7-1.1,5-2.6,4.9-3.2c-0.6-2.8-2.3-5.4-3.6-8.1c2.2,0.1,4.4,0.2,5.3,0.3c1-4.1,1.8-7.7,2.9-12.3c-0.9-0.5,0-8.4-5.9-2
		c3.3-4.8,6.5-9.6,9.7-14.4c5.6,8.4,8.9-0.5,13.3-1.6c-3.3-1.2-7.7-0.7-9.6-2.6c-1.5-1.5-0.1-6,0.1-9.2c0.1-0.5,0.2-0.9,0.2-1.4
		c9.3-8.8,10-9,21.5-5.1c-9,1.6-9,1.6-9.4,7.3c2.7-1.3,5-2.5,7.3-3.7c0.2,1.1,0.4,2.1,0.6,3.4c1.7-1.9,3.2-3.6,4.4-4.9
		c7.1,1.9,9.6,11,17.2,10.1c0.4-0.9,0.8-1.8,1.2-2.7c-4.7-2.8-9.4-5.6-14.1-8.4c0.3-0.7,0.7-1.5,1-2.2c13,1.2,25.9,2.4,38.9,3.6
		c-1.9-2.8-3.6-4.5-5.7-5.4c-4.9-2.1-9.9-3.8-14.9-5.7c1.5-4,3-8.1,4.9-13.4c-4.2,1.3-6.9,2.1-9.1,2.8c1.6,4.1,2.9,7.3,4.1,10.4
		c-3.4-2.6-6.7-5.3-11-8.6c4.7-3.1,9.1-6,13.3-8.8c-1.9-0.7-3.9-1.4-6.5-2.3c5.5-2,10.2-3.7,15-5.4c-0.3-0.9-0.6-1.9-0.9-2.8
		c-6.2,1.7-12.3,3.3-18.5,5c0.4-1.2,1.4-2.9,1-3.4c-2-2.3-4.4-4.3-7.7-7.4c-5.7,0.7-13.3,1.5-20.6,2.4c6.2,3.9,11.6,7.3,16.9,10.7
		c-0.7-0.2-1.4-0.5-2.1-0.7l0.2,0c-4.6,1.2-9.2,2.4-13.7,3.6c0.7,0.9,1.4,1.7,2,2.6c-1.5,2.8-2.4,7.3-4.7,8.1
		c-3.4,1.3-7.7,0-11.3-0.2c-1.2,5.1-2.3,9.6-3.4,14.2c-0.9,0.2-1.7,0.4-2.6,0.5c-2.3-0.2-5.8,1.5-2.8-3.8c1.6-2.8-0.1-7.6-0.5-13.3
		c-2.1,0.7-4.3,1.6-6.5,2.3c-1.8,0.6-3.7,1.3-5.6,1.4c-9.9,0.5-19.8,1.7-29.6,0.9c-9.2-0.8-18.2,1.8-27.2,0.5c-2.7-0.4-5-3-7.5-4.5
		c4.6,0,9.1,0.3,13.7,0c15-1.1,30-3.1,45.1-3.5c11.2-0.3,17.6-5.5,15-14.5c-1.8-6.1,1.1-15.2,6.4-19.1c-10.5,0-20.7-0.6-30.8,0.1
		c-22,1.6-43.8,3.5-65.9,1.4c-9.6-0.9-19.4-0.2-29.3-0.2c-0.9,3.9-1.7,7.3-2.5,10.7c0.5,0.4,1,0.8,1.5,1.1c2-1.4,4-2.7,4.4-3
		c3.9,3.1,7.5,6.1,11.4,9.2c-1.6,0.6-3.4,1.2-6.5,2.3c1.9,3.7,3.6,6.9,5.5,10.5c-6.1-0.5-12.3-1-18.5-1.5c1.1,1.2,2.4,1.9,3.7,2.1
		c15.8,1.6,31.4,5.4,47.4,4.4c-3.7,1.4-7.3,4-11.1,4.1c-13,0.5-26,0.2-39.3,1.5c8.2,0.5,16.4,1.2,24.7,1.6c4.5,0.2,10-1.3,9.7,7.4
		c-4.3-5.1-7.8-8.9-11.7-0.5c-2.1,4.3-7.5,3.6-10.5-0.6c-0.9-1.3-1.7-2.7-2-3.1c-3.6,2.3-6.7,4.3-9.1,5.9c3.1,0.7,8.1,0.6,11,3
		c3,2.4,4,7.2,4.4,11.8c-1.6-3.1-3.2-6.3-4.8-9.4c-0.3,0.1-0.6,0.2-0.9,0.4c0.7,4,1.2,8.1,2.1,12c0.7,3,1.3,5.2-2.5,7.3
		c-3.5,1.9-3.3,5.5,0.7,7.5c3,1.5,6.3,2.4,9.5,3.6c-2.1,4.2-4.3,8.6-7,14c-3.3,0.6-8.5,1.5-14,2.5c-2.2,9-6.2,18.9,4.4,27.4
		c-6.9,1.9-5.5,6.3-4.8,10.5c0.4,2.7,0.4,5.4,0.7,10.1c2.2,2.2,6.1,5.9,10,9.7c-1.4,0.3-4.3,0.8-7.1,1.4c1,3.2,2,6.5,3.1,10.1
		c0.9,0,2.6,0,4.6,0c-4.1,5.1-15.4,9.4-1.7,17.2c-3.4-0.8-6.8-1.6-11-2.6c0.2,0.9,0.5,3.4,0.6,3.4c7-0.5,6.3,4.8,7.2,9.4
		c-1.4,0.5-2.9,1-4.9,1.7c4.7,3.4,8.9,6.5,14,10.2c-4.3,0.9-8.3,1.7-13.6,2.9c3.4,0.8,5.9,1.3,10.5,2.4c-5.4,3.3-9.5,5.7-13.7,8.2
		c2.5,4.8,7.1,6.5,14.8,4.4c-8.6,6.3-22.5,0.6-24.8-10.1c-0.7-3.2-1.4-6.8-3.3-9.2c-4.3-5.7-1.7-8.2,3.7-9.4c4.3-1,6.1-2.8,6.1-7.5
		c0.2-26.7,0.7-53.4,1.1-80.1c0-1.5-0.2-2.9-0.3-5c-26.6,0.9-53,1.8-79.3,2.7c0-22.5,0-45,0-67.5c7.5,0,15.1,0,22.4,0
		c-2.2,3.7-4,6.7-5.6,9.5c2.8,1.6,4.8,2.7,5,2.8c19.4-3,37.2-5.8,54.3-8.4c-0.7-4.8-1.3-9.1-1.8-12.7c-3.7-0.3-7.2-0.5-10.7-0.7
		c0.1-1,0.2-1.9,0.3-2.9c3.3,0,6.5,0,11.5,0c-3.4-5.3-5.9-9.2-8.4-13.1c-3,2.8-5.9,5.4-8.7,8c0-0.6,0-1.2-0.1-1.8
		c-8-1.1-15.9-2.1-25.7-3.4c2.3,2.3,4.2,4.3,6.2,6.3c-4.8,0.2-9.5,0.4-15.7,0.7c3.6-2.5,5.9-3.9,8.1-5.4c-13.5,4.9-21,4-21.4-2.1
		c-2.9,1.6-6.3,3.4-9.7,5.3c0-12,0-24,0-36c4.3,1.8,8.5,4.5,13,5.1c3.6,0.5,9.6,1.6,8.9-6c-0.1-1,2.5-3.4,3.5-3.2
		c6.1,1.2,12.2,2.9,18.2,4.4c0.5,0.1,1.2-0.5,2.5-1c-1.8-1.5-3.1-2.5-4.5-3.6c0.3-0.6,0.7-1.1,1-1.7c4,2.1,8,4.1,12.1,6.3
		c-5.1,3.5-9,6.1-12.9,8.8c0.2,1.1,0.4,2.3,0.5,3.4c6.9-8.1,13.3-3.8,20-1.9c3.1,0.9,6.7,0.1,10,0.1c0-0.5-0.1-1-0.1-1.5
		c-4-0.6-8-1.1-12-1.7c1.4-1.2,2.6-1.2,3.8-1.1c1.3,0.1,2.6,0.2,4.8,0.3c-4.8-7.1-4.1-17.1-15-18.1c1.1-0.9,2.1-1.7,3-2.5
		c4.7,0.7,9.3,1.8,14,1.9c2,0.1,4-1.9,6-3c-0.8-1.1-1.5-2.2-2.3-3.3c2.6,0.3,5.3,0.5,7.2,0.7c0.3-4.4,0.2-8.2,0.9-11.9
		c1.1-5.8-1.5-7.6-7.7-8.2c1.8,2,2.7,2.9,4.7,5.2c-2.7-1-3.7-1.6-4.9-1.8c-1.4-0.3-2.8-0.2-3.3-0.3c1.1,5.6,2.2,10.9,3.2,16.3
		c-1.5-0.4-3-0.9-5-1.4c0.7,1.6,1.1,2.6,1.8,4.1c-4.1-0.8-7.3-1.4-10.2-2c0-1.7,0-3.1,0-4.6c-6.5,0.7-4.8,4.8-4.4,8.3
		c-5.8-0.8-11.6-1.6-17.4-2.4c-0.1,0.6-0.1,1.2-0.2,1.7c3,1.2,5.9,2.4,8.9,3.6c-0.2,0.9-0.5,1.8-0.7,2.7c-11.4,0-22.9,0-34.3,0
		c0.4,1.7,0.8,3.5,1.3,5.4c-3.1-0.2-5.9,0.1-8.3-0.7c-2.3-0.8-4.1-2.8-6.1-4.2c0-4.5,0-9,0-13.5c4.5-2.9,8.9-5.9,13.1-8.6
		c2.9,1.5,5.6,2.9,8.6,4.5c-2.6,1.6-4.7,3-6.9,4.3c8.9,0.4,11-1.1,12.1-6c-9.2-5.1-18.1-10.1-27-15.1c0-4,0-8,0-12
		c2.7-3.3,5.3-6.7,8.5-10.7c2.2,0.7,5.3,1.8,9.5,3.2c-2.9,1.9-4.7,3.1-8.6,5.7c6,0.6,9.7,1,12.5,1.3c4,9.8,15.4,10.4,20.5,18.1
		c-1.5,0.3-3.1,0.6-4.6,0.8c2.1,1,4,0.9,6,1c1.9,0.1,3.7,0.6,6.6,1.1c-2.4,1.7-3.9,2.6-6.4,4.3c9.5-0.4,13.9-4,12-8.6
		c-1.5-3.6-3.1-7.1-4.6-10.6c0,0-0.2,0.2-0.2,0.2c2.3-3.2,4.6-6.5,7.5-10.6c-2.5,0.5-4.1,0.9-5.7,1.2c0.3-2,0.6-3.8,0.9-5.6
		c1.6-0.2,4.1,0.1,4.7-0.8c3-5,6.5-3.3,10.8-1.5c-1.9,1-3.3,1.6-4.6,2.3c0.1,0.6,0.3,1.2,0.4,1.8c3.7-0.4,7.3-0.9,11-1.3
		c0.2,0.4,0.4,0.7,0.6,1.1c-4.7,2.1-9.4,4.2-14.1,6.3c0.3,0.4,0.6,0.9,0.9,1.3c6.7-1.7,13.4-3.4,21-5.3c-1.1-2.4-1.6-5.6-3.1-6.3
		c-5-2.1-10.3-3.4-15.6-4.8c-6.3-1.6-11-0.2-11.7,7.3c-4.5-2.5-9-4.9-13.5-7.4c-0.6-1.9-1.3-3.9-1.6-4.9c-6.6,0-12.8,0-19.4,0
		c2,1.4,3.3,2.3,4.7,3.3c-2.5,1.9-5.1,3.8-7.6,5.7c-2.7-1.5-5.3-3-8-4.5c0.1-0.3,0.3-0.7,0.4-1c1.6,0.2,3.1,0.4,4.7,0.6
		c0.5-1.9,0.9-3.7,1.3-5.3c-5.2,0-10.1,0-15,0c0-41.5,0-83,0-124.5c2.2,3.9-0.2,10.2,8,11.2c4.7,0.6,7.5,0.4,10.5-2.5
		c1.5,0.8,3.2,1.8,5.2,2.9c-2.4,8.1-2.2,7.4,7.5,9.8c6,1.5,11.5,5.3,17.1,8.2c1.3,0.7,3.2,2.7,3.4,2.5c8.5-7.2,11.4,4.1,17.3,5.5
		c5.5,1.3,10.5,4.8,17.4,8.1c0.6-6.6,0.8-11.2,1.5-15.8c0.9-6.1,5.8-10.1,9.9-8.4c7.6,3.2,7.6,3.2,11.5,1c2.4,2.9,4.3,7.5,6.9,7.9
		c8.4,1.3,14,5.5,18.5,12.3c0.8,1.3,2.8,1.8,4.4,2.7c-2.8-12.8-6.7-20.4-20.3-20.1c0.1-0.7,0.2-1.4,0.4-2.1
		c4.8,0.8,9.5,1.6,14.3,2.5c0,0-0.1-0.2-0.1-0.2c3.1,4.7,6.8,9.2,9.3,14.2c3.3,6.7,14.8,11,19.8,5.4c7.9-8.7,17.1-8.9,28.1-7.6
		c-0.6-2.7-1.5-5.6-3.4-6.5c-11.9-5.7-23.6-1.6-32.6,10.1c1.8-4.2,3.8-9,7.3-11.4c10.8-7.3,22.1-5,33.4,0c-3.5-2.9-7.1-5.8-11.2-6.5
		c-10.9-1.8-21.2,0.3-29.2,7.1c-3.1-2.2-5.5-3.9-8-5.7l0.1-0.3c0.3-1.9,0.5-3.7,0.8-5.7c2.6,0.4,4.7,0.7,6.9,1.1
		c-0.8,1.5-1.5,2.9-3.4,6.3c14.6-9.4,28.3-7.3,42-4.4c4.1,0.9,10.3-4.1,11.4,2.2c3.9-1.3,7.5-2.5,11.2-3.7c0,3.7,0,7.4,0,11.1
		c-0.2,0.1,0.7-0.4,2.8-1.5c0,13.7,0,26.9,0,41.5c4.2-1.8,7-2.9,9.4-4c8.8,4.2,16.7,11,27.4,7.5c10,7.7,22.3,1.8,33.1,5.7
		c5.7,2,11.9,2.6,18.2,3.1c-0.6-0.3-1.3-0.6-3.3-1.6c19.2,3.9,36.9,8.4,54.8,10.9c18.7,2.6,37.6,3.1,56.1,4.5
		c7.2-14.4,4.5-24.7-8.3-28.2c3.1-1.2,5.1-2,7.1-2.8c-2.1-0.9-4.2-1.7-6.8-2.8c1.4-2.5,2.4-4.3,3.5-6.2c-0.6-0.2-1.2-0.4-1.8-0.6
		c0.6-3.3,1.2-6.6,1.7-10c0.6-4.2,1-8.4,1.7-13.9c-3.9-4.6-0.6-18.4,7.4-23.4c0.3,2.9,0.2,5.9,1,8.7c0.8,2.6,2.4,5,3.7,7.6
		c-0.7,0.4-2.6,1.4-4.5,2.4c0.2,0.4,0.3,0.8,0.5,1.2c5-0.6,10.1-1.2,15.1-1.8c0,0-0.3-0.3-0.3-0.3c0.2,0.7,0.3,1.8,0.8,2.1
		c7.1,3.6,6.7,9.6,5.9,16.2c-0.2,1.6,2.5,4.5,4.4,5.3c2.6,1,5.9,0.6,8.8,0.8c-1.4,7.2-4.1,7.3-20.7,0.5c-1,5.5,13.5,4.2,4.9,12.9
		c5,1,9.6,1.9,13.6,2.7c0.8,4.2,1.4,7.9,2.1,11.6c0.8,0,1.6,0,2.5,0c-3.6,4.6-7.2,9.2-11.1,14.1c3,0,6.2,0,10.4,0
		c-5.5,4.7-10.1,8.7-14.9,12.9c0.6,1.4,1.7,3.9,2.8,6.5c-0.4,0.2-0.7,0.4-1.1,0.6c-1.2-1.5-2.5-2.9-3.9-4.6c-5,15.7,1,24.5,16,24.5
		c5.5,0,10.9,0,16.9,0c0.5-3.5,0.9-6.6,1.3-9.7c2,11.7,1.8,12.1-9.6,13.5c-5,0.6-10,0.6-14.9,1.6c-1.9,0.4-3.4,2.4-5.6,4.2
		c-0.1-1.5-0.2-4-0.3-6.4c-1.6,1.2-3.5,2.7-5.4,4.1c3.7,8.8,12.8,11.3,33.7,9.3c-0.2-3.7-0.5-7.4-0.7-11.1c0.4-0.1,0.9-0.2,1.3-0.3
		c0.4,1.1,1.2,2.2,1.2,3.3c0.1,8.9,0.5,17.9-0.2,26.8c-0.2,2.5-3.7,6.6-5.9,6.7c-9.2,0.5-18.4-0.3-28.2-0.6c0.1,0.5,0.2,2.2,0.6,5.7
		c-1.9-1.9-3.6-2.8-3.7-3.7c-0.2-3.5,0.5-7,0.1-10.4c-0.3-2.2-1.9-4.2-3-6.3c2.6-8.6,3.7-17.1,0.1-25.4c0,8.4,0,16.9,0,25.3
		c-0.2,1.7-0.7,3.4-0.7,5.2c-0.1,6.4,0,12.8,0,21.1c2-2.5,2.8-3.5,2.5-3.1c6.7,1.3,12.5,2.5,18.3,3.6c-4.3,13.2-13.4,18-20.9,11.3
		c0,2.7,0,5.4,0,8c-0.6,0.1-1.1,0.1-1.7,0.2c-1.6-3.7-3.3-7.5-5.8-13.3c-1.7,4.5-2.6,6.6-3.4,8.7c5.7,3.6,6.1,8.4,1.4,15
		c8.9-0.6,9.2,0.4,3.7,14c11.4,2.9,16.9,16.5,30.7,15.4l0,0c0.2,0.1,0.6,0.1,0.7,0.3c0.2,0.4,0.2,0.9,0.3,1.4
		c-5.4,0.4-10.8,0.8-16.2,1.2c-3.1,0.2-6.3,0.5-9.7,2.2c2.1,0.7,4.1,1.5,6.6,2.3c0.1,1,0.3,2.1,0.3,3.3c0.1,10.6,5.4,16,16.1,16.3
		c2.5,0.1,5,0.1,7.4-0.2c4.2-0.4,8.3-1,14.4-1.8c-12.7-6-8.4-15.6-7.9-24.3c2.2,7.2,8.5,9.8,14.5,6c1.4-0.9,3.3-1,5.6-1.6
		c-1.6,1-2.6,1.7-3.5,2.3c0.2,0.6,0.4,1.1,0.7,1.7c5.6-1.1,11.2-2.3,16.8-3.4c-0.2-0.8-0.3-1.6-0.5-2.4c-2.5-0.2-5.1-0.4-7.6-0.6
		c0-0.5,0-1.1,0-1.6c3.9,0,7.7,0,12.2,0c-17.1-14.1-18.5-15.8-18.5-23c2.5,3,4.6,5.7,6.9,8.1c3,3.1,5.9,3.3,8.3-0.8
		c0.9-0.1,1.7-0.2,2.6-0.2c2.1,0.3,4.1,0.5,4.9,0.6c0.9-6.5,1.8-12.3,2.7-18.2c0.9-1.1,1.6-2.5,2.7-3.1c2.1-1.2,4.5-2,6.8-2.9
		c1.9-5.1,3.8-10.2,6.1-16.5c-7.1-0.6-12.6-1.1-18-1.6c5.5-2.1,11-4.2,16.5-6.3c0-0.4,0.1-0.9,0.1-1.3c-6.1,0-12.1,0-18.2,0
		c4.1-0.8,8.2-1.6,12.2-2.5c2-0.4,4-1.1,6-1.7c-0.1-0.8-0.2-1.6-0.3-2.4c-5-0.5-10.1-1.1-15.1-1.6c-0.1-0.6-0.1-1.1-0.2-1.7
		c5.1-0.8,10.1-1.6,15.2-2.3c-0.1-0.8-0.1-1.5-0.2-2.3c-4.3-0.2-8.5-0.5-12.8-0.7c0-0.4,0-0.7,0-1.1c4-0.2,8.1-0.5,13.5-0.8
		c-0.8-2.7-0.9-6.3-2.3-7c-7.3-3.2-13.5-1.1-17.5,6.2c-1.7-1.6-2.8-2.7-5.2-4.9c8.3-2.7,15.8-5.2,22.7-7.5c3.3-3.1,6.7-6.1,10.3-9.4
		c-9.3-7-20.3-2-30.8-4.3c8-4.7,15.8-5.5,24-1.8c3.9,1.8,6.9,0.6,7.3-4.2c0.8-8.9,1.3-17.9,2.2-26.8c0.3-2.9,1.5-5.6,2.4-8.7
		c-0.7-0.3-2.2-0.9-3.7-1.6c0-0.8,0-1.5,0.1-2.3c5-0.2,10-0.4,14.6-0.6c0.4,5.3,0.8,9.7,1.1,14.2c0.9,0,1.8,0,2.7,0
		c0.3-2.4,0.5-5,1.1-7.3c0.7-2.6,1.5-6.8,3-7.2c3.1-0.8,6.8,0.3,10.2,0.9c1.8,0.3,3.5,1.4,5.3,2.1c1.3-5.6,8.5-7.2,18.4-3.6
		c-0.6-5.9-1.4-10.9-1.6-15.9c-0.3-6.6-0.1-13.2-0.1-20.1c-13.6-2-13.8-2.9-2.2-19.8c-2.3-1-4.5-1.9-6.7-2.8
		c-1.4-17.2-1.2-17.9,6.4-22.3c-9.3-5.2-7.3-13.6-4.8-20.9c0.9-2.7,7-4.9,10.7-5c2,0,4.2,4.9,7.7,9.6c-6.7-15.9,2.1-25.6,10-36.4
		c-13.4-2.4-6.8-13.6-9-20.9c-1.7-5.6,0.4-12.3-5.5-16.8c-0.9-0.7-1.3-3.9-0.5-4.8c7.2-9.1,2.5-19.3,2.7-28.8
		c0.5-17.7-0.5-35.5,0.2-53.1c0.3-6.8,3.3-13.5,5-20.2c0.7-2.8,1.2-5.7,1.9-8.6c5.5,5.4,11.6,6,18.2,2.2c1.6-0.9,3.3-2.6,4.8-2.5
		c7.1,0.6,13.6-0.3,18.9-5.6c0.7-0.7,2.4-0.5,3.6-0.5c9,0.5,17-1.4,24.7-6.9c5.8-4.2,13.5-5.9,20.4-8.8c1.8,2.6,3.7,5.5,5.7,8.4
		c0.7-0.4,1.3-0.9,2-1.3c-0.5-1-1.1-2-1.3-2.5c3.3-2.7,6.7-5.5,9.8-8c-1-0.2-3.1-0.7-4.5-1c0.5-3.6,1-7.1,1.7-12.3
		c4.5,1.6,9.8,3.1,14.8,5.3c1.5,0.7,3.1,3.1,3.1,4.8c0.5,15.9,1.1,31.9,0.9,47.8c-0.1,14.1-1,28.1-1.9,42.2
		c-0.7,9.9-2.2,19.8-3,29.8c-0.4,5.6-0.1,11.3-0.1,17c0,14.5,0,29.1,0,43.4c-14.5-2.2-30.3-4.6-46.9-7.1c1.4,10-8.5,9.2-12.1,15
		c1.1,1.5,2.4,3.2,4.4,5.9c0.9-3.5,1.6-5.9,2.2-8.3c0.3,0,0.6-0.1,1-0.1c0.5,3.4,1,6.9,1.4,9.5c6.1,0,11.7,0,17.6,0
		c-0.7-0.9-1.7-2.5-2.6-3.8c3.5-4.1,7.1-8.4,11.2-13.4c5.6,6.4,5.2,17.9,16.5,17.8c-4.6,0.7-10,0.7-6.2,8.7c5.5-4,6.7-0.2,7.7,4
		c-5.1,0.7-8.8,2.4-6.7,8.6l0-0.2c1,0.7,2,1.3,2.9,2c-1.1,4.1-4,5-7.9,4.8c-5.3-0.3-10.7-0.1-16.1-0.1c0,0.6,0,1.2,0,1.8
		c8.1,0.5,16.2,1,24.3,1.6c-0.3,0.5-0.5,1.1-0.8,1.6c2.3,0.9,4.7,1.7,5.3,1.9c0.8-5.3,1.6-9.9,2.1-14.6c0.1-1.4-0.6-2.9-1-4.3
		c1.9-3.3,5.2-6.6,5.1-9.8c-0.1-2.5-4.4-4.9-6.8-7.4c7.9-2.3,12.5,2.2,13.4,8.9c0.8,5.6,6.5,12.5-2.1,17.4c-0.7,0.4,0.7,4.3,1.1,6.6
		c0.9,4.9,2.2,9.7,2.6,14.6c0.1,1-3.1,2.3-3,2.3c0.9,6.6,2.6,12.2,2.1,17.7c-0.4,5.2,3.8,12.1-4,15.3c4.7,14.4,2.1,20-9.6,21.1
		c1.8,0.5,3.7,1.6,5.4,1.3c9.7-1.6,13.6,7,19.7,11.5c1.6,1.2,0.7,5.8,1,8.8c0.6,5.8,1.1,11.6,1.8,17.4c0.2,2,0.8,4,1.4,6.7
		c5.3-3.9,9.5-4.7,14.1,2.3c2,3,9.3,2.4,14.6,2c-1.7-0.7-3.4-1.4-5.7-2.4c1-0.8,1.6-1.6,2-1.5c7.4,1.7,14.8,3.6,22.3,5.3
		c1.6,0.4,3.3-0.1,5-0.1c0,0-0.4-0.1-0.4-0.1c5.3,2.1,10.7,4.3,16.5,6.6c0-0.1-0.6,1.9-1.9,5.8c8.7-1.4,16.2-2.7,23.6-3.9
		c0.2,0.4,0.4,0.8,0.5,1.2c-1,0.7-2,1.4-3.1,2.2c2.4,3.8,4.8,7.6,8.4,13.3c-5.1,0.2-9.3,0.4-12.3,0.6c-1.4,3.8-2.7,7.5-4,11.2
		c3.7-1.6,8.8-3,13-5.8c4-2.7,7.1-6.8,10.9-10.6c2.1,1.8,3.7,3.1,6.1,5.1c2.1-2.5,5.2-4.5,5.8-7.2c1.1-4.5,0.7-9.4,0.7-14.1
		c0-11.3-0.4-22.7-0.2-34c0.1-8.6,1-17.3,1.2-25.9c0.2-6.6,0.3-13.2-0.3-19.7c-0.5-5.5-2.7-10.8-2.7-16.2c0-3.2,2.8-6.4,4.9-10.8
		c-9.8-2.7-14.3-11.1-17.5-22.2c-3.1-10.7-9.6-20.2,0.7-30.8c-7.2-1.4-9.3-5.8-8.3-12.7c0.6-3.8,0.3-8.1-0.8-11.8
		c-1.6-5.4,1.3-7.3,5.3-8.9c5.1-2,10.1-4.2,15.3-5.6c8.8-2.3,12.5-10.2,17.5-16.2c4.9-6,1.5-12-7.1-14.3c-3.3-0.9-6.8-1.3-9.2-1.7
		c0-25.4,0-50,0-74.7c0-4.7-0.1-9.5,0.3-14.2c1.3-13.1,3.4-26.1,4.3-39.2c0.9-13-2.1-26.9,1.5-39c4.9-16.3-2.2-30.2-3.3-45.1
		c-0.8-11.1,0.4-13.8,14.3-20.7c12.3-6.2,25.6-7.7,39.1-8.2c11.3-0.4,22.6-1.2,33.9-1.7c1.6-0.1,3.3,1,4.9,1.5c3.7,1.3,7.6,5,10.8-1
		c0.3-0.6,2.7-0.4,4,0c5.4,1.7,10.7,3.6,16.1,5.3c1.2,0.4,2.8,0.3,4-0.2c7-2.5,13.1-4.8,19.3,3.3c3.1,3.9,10.6,4.7,16.3,6.2
		c9.1,2.3,11.7,4.6,10.8,11.9c-10-3.5-19.8-6.9-29.7-10.4c7.1,8.2,1.9,18.3,3.1,30.3c4.3-4,7.4-6.9,10.5-9.8
		c0.7-1.1,1.5-2.1,2.2-3.2c1.5,1.1,3,2.2,5.1,3.8c0.3-3.2,0.5-5.8,0.8-8.9c3.1,2.2,6,4.4,8.2,6c0,4.2,0.2,7.6-0.1,10.9
		c-0.2,2.4-1.1,4.8-1.8,7.1c-0.2,0.6-1.4,1.2-1.3,1.3c5.1,9.9-1.8,11.6-8.9,13.2c-0.6-2.9-1.3-5.7-1.8-8.3
		c-7.5-0.1-14.2,0.6-14.5,10c-0.2,5.9-0.6,11.9-0.7,17.8c0,2.3,0.6,4.6,0.9,6.9c0.8,0,1.7,0,2.5,0c0.3-2.2,0.6-4.4,0.9-6.6
		c1.2-0.1,2.4-0.3,3.5-0.5l-0.3,0c1.6-0.5,3.2-1.1,4.8-1.6c2.6-1.1,5.3-2.2,7.9-3.3c3.9,3.2,8.5,6.2,2.9,10.3
		c1.1,4.9,2.2,9.1,2.5,13.4c0,0.5-4.2,1.3-6.5,2c-6.5-2.5-13.1-5-19.6-7.6c-0.3,1-0.6,2-0.9,3c6.9,1.5,12.6,7.3,20.6,4.4
		c0.8,1.3,1.4,2.8,2.6,3.7c1.4,1.1,3.2,1.8,4.9,2.6c-0.3,0.8-0.6,1.6-0.9,2.3c-7.5-1.6-14.9-3.2-22.4-4.8c-0.2,0.8-0.4,1.6-0.6,2.4
		c4.9,1.2,9.8,2.4,14.4,3.6c0.2,1.3,0.3,2.7,0.5,4.2c2.4-1.1,4.3-1.9,6.2-2.8c0.7,2.2,1.5,4.4,2.7,8c-9.1-2-16.3-3.7-23.5-5.1
		c-4.7-0.9-8.5-1-5,5.7c1.4,2.8,1.5,6.2,2.2,9.3c0.5,1.4,0.9,2.8,1.4,4.2c1.2,3.6,2.4,7.2,3.6,10.8c0,0-0.2-0.2-0.2-0.2
		c1.2,0.1,2.3,0.2,3.5,0.3c-0.9,2.4-1.7,4.7-2.6,7.1c-0.8,0.4-1.6,0.7-2.3,1.1c-6.9,7.4-7.4,12.6-3.4,15c0.8,4.6,0.5,8.2,2,10.6
		c2.1,3.4,5.7,5.9,8.6,8.8c0,0-0.2,0.3-0.2,0.3c-0.8,1.3-1.6,2.7-2.4,4c0.9,0.6,1.8,1.3,2.8,1.9c-3.5,3.9-7.1,7.8-10.5,11.5
		c0.6,1,2.3,2.7,2.6,4.7c0.4,2.1-0.6,4.5-1.1,7.7c-2.2-1.2-4.8-2.6-7.4-4c-3.1,9.1-1.3,15.2,7.1,17.8c-0.8-1.5-1.4-2.7-2.1-4.1
		c0.8,0,1.6-0.2,2.1,0c4.3,1.8,8.6,3.8,13,5.4c1.9,0.7,4,0.7,6.1,1c-0.7,2.2-1.4,4.4-2.1,6.7c-4.5-1.1-8.9-2.5-13.5-3.3
		c-1.7-0.3-3.6,0.9-5.4,1.4c-1.1-1.2-2.4-3.5-3.3-3.3c-9.7,1.9-19.3,4.1-29,6.2c0.1,0.5,0.2,1,0.3,1.5c7.8,0.4,15.5,0.8,23.6,1.2
		c2.3-7.3,2.3-7.3,8.6-5.8c2.7,1.2,5.2,3.4,8,3.6c3.4,0.3,7-1,10.5-1.6c11.2-1.3,22.5-3.4,33.7-3.8c10.4-0.3,20.8,0.6,31.1,1.9
		c16.5,2.1,16.2-1.5,16.1,18.2c-0.1,16,0.1,31.9,0,47.9c-0.1,9.4-1.6,9.9-10.6,8.6c-11.1-1.6-22.4-2-33.2-2.9c0,40.3,0,79.5,0,119.2
		c6.7-2.9,11.3-7.4,17.9-0.1c2.9,3.2,11.7,1.1,18.9,1.5c-1.2-4.7-2.1-8.2-3-11.6c0.4-0.3,0.8-0.5,1.2-0.8c2.8,4.1,5.6,8.1,8.4,12.2
		c-0.5,1.1-1,2.1-1.5,3.2c-15.1,0-30.2,0-46.6,0c1.9,7.6,3.4,12.9,4.6,18.2c0.2,1.1-0.6,2.3-0.8,3.5c-0.5,2.7-0.9,5.5-1.3,8.2
		c-0.1,1,0.3,2.8,0.1,2.9c-11.2,2.9-2.9,8.9-2.2,13.6c0.2,1.2,1,2.3,1.4,3.4c-1.5-1.6-3-3.1-5.2-5.3c-2.5,7.9-4.5,14.2-6.5,20.5
		c0,0.3,0,0.6-0.1,0.9c-0.6,0.6-1.1,1.3-1.7,1.9c0,0-0.2-0.1-0.2-0.1c0,1.1,0,2.2,0.1,3.3c-1.3,0.1-2.6,0.3-3.9,0.4
		c0-0.4,0-0.8-0.1-1.2c-0.3,0.2-0.5,0.4-0.8,0.6c0.4,0.1,0.8,0.2,1.2,0.3c1.9,5.2,3.7,10.4,5.6,15.7c1,0.9,1.9,1.8,2.9,2.8
		c-1.8,1.5-3.3,3.6-5.3,4.5c-6.2,2.6-12.5,4.7-18.8,7c0.2-2.4,0.4-4.9,0.5-7c4.7,0.1,10.3,3.5,11.4-4.4c2.3,0.5,4.5,1,7.2,1.5
		c-2.2-7.3-3.2-7.9-9.2-7.2c-2.4,0.3-4.9,0.2-7.3,0.2c-10.6,0-21.2,0-31.8,0c-4.8,0-9.6-0.7-14.4-0.2c-6.4,0.6-13.8-1.8-20,5.2
		c3.2,0,5.4,0,8.3,0c-2.3,7-4.4,13.2-6.8,20.6c3.1-1.8,4.9-2.9,6.6-3.8c0,3.7,0,6.9,0,8.8c3.4,1.2,5.7,2.1,8,2.9
		c-0.9,2.1-1.7,4.2-2.6,6.2c0,0,0.3,0,0.3,0c-1.3-0.1-2.5-0.3-3.8-0.4c-0.1,2.1-1,4.7,0,6.1c1.3,1.9,4,4.1,6.1,4.1
		c15.3,0,30.7-0.3,46-1.1c2.6-0.1,6-3.1,7.1-5.7c1.4-3.2,1.4-7.6-4.2-8.1c3.3-2.6,6.7-5.2,10.8-8.4c-3.8-0.6-6.6-1.1-9.3-1.5
		c-0.6-2.1-1.3-4.2-1.9-6.3c4,0.2,8.5,1.6,11.8,0.2c4.9-2.2,7.7-0.3,11,2.3c-1.5-0.5-2.9-1.1-5.6-2c5.4,5.8,10,10.4,14.1,15.4
		c1.4,1.7,2.3,4.3,2.3,6.5c0.1,23.4-0.1,46.8-0.2,70.3c0,12.5,0,25.1,0,38.2c-9.1-0.8-17.5-1.5-27.1-2.3c-0.7,5.7-1.2,10.9-2,16.2
		c-0.8,5.5-2,11-2.8,16.6c-0.6,3.9-1.6,8.1-1,11.9c1.5,9.2-3.8,12.4-11.2,13.9c-14.7,2.9-29.2,5.2-44.3,2
		c-6.1-1.3-13.1,1.8-19.6,1.7c-12.8-0.3-25.5-1.5-40.2-2.4c5.4,1.4,9,2.7,12.8,3.2c11.3,1.6,22.8,2.4,34,4.5
		c4.9,0.9,9.4,4.4,14.1,6.7c0.2,0.9,0.5,1.9,0.7,2.8c2.3-3.2,4.6-6.4,7.4-10.2c4.1,1.7,9.2,4.2,13.7-1.2c0.4-0.5,2.7,0.4,4.1,0.8
		c1.9,0.4,3.8,1.4,5.6,1.3c6.7-0.5,13.4-1.8,20.1-2c1.8-0.1,4.8,2.1,5.4,3.8c1.2,3.7,2.2,8.2,1.2,11.8c-1,3.5-4.6,6.2-6.5,8.6
		c0.6-0.1,3-0.4,5.6-0.8c2.2,6.1-2.8,6.5-5.9,6.7c-25.8,1.9-51.6,4.2-77.4,4.6c-11.7,0.2-23.6-3.1-35.3-5.5
		c-14.2-3-28.2-6.7-42.7-11.6c2.6-1,5.3-2,9.9-3.8c0-4.5-0.1-10.1,0-15.6c0.3-13,1.9-26,0.9-38.9c-1.2-15.4-4.6-30.6-6.9-45.9
		c-0.4-2.3,0-4.8,0.3-7.2c1-7.5-1.7-10.7-9.2-10.3c-21.4,1.1-42.9,2.2-64.3,3.4c-22.9,1.3-45.8,2.7-68.8,4.1c-0.2,0-0.5,0-0.7,0
		c-14.9,0.3-15.8,1-17.2,15.8c-1.2,12.5-3.6,14.1-16.1,14.3c-17.9,0.3-35.8,1.5-53.7,2.2c-4.9,0.2-9.8,0-14.8,1.8
		c12.8,0.2,25.6,0.3,38.4,0.6c5.8,0.1,11.7,0.9,17.5,0.8c5-0.1,10.1-2.1,15.1-1.6c11.8,1.1,15.4,7.4,11.5,18.6
		c-0.2,0.7-1.5,1.3-1.4,1.6c5.5,13.2-4.2,10.6-11.2,10.7c-9.6,0.1-19.4,1.2-28.9,0.1c-17.4-2-35.1-2.7-51.7-9.7
		c-3.7-1.5-8.4-1-12.6-1c-5.5,0-7.3-2.6-6.9-7.9c0.8-10.9,1.4-21.7,1.9-32.6c0.1-2.4-0.6-4.9-1-7.3c-13.4,0-26.3-0.1-39.3,0
		c-14,0.1-28,0.7-42,0.5c-4.4-0.1-8.7-2-14.7-3.5c3.1-2,4.3-2.7,6.1-3.9c-2-1.5-3.6-2.7-4.5-3.3c1.4-3.7,2.7-7.3,4.1-10.9
		c-11.1-2.3-19.9-2.4-19.2,12.3c-4.6-4.1-12.3,5.8-13.5-5.6c-1.2,2.2-1.9,3.4-3.2,5.9c-1.8-6.3-3.3-11.4-5.1-17.4
		c-9,0.6-18.3,0.6-27.2,2.2c-2.9,0.5-5.1,5.1-6.9,8.7c-5.9,1-8.6,5.5-11.6,10.7c-5.8,9.9-13.9,17.6-25.9,20
		c-2.1,0.4-4.7,1.4-5.8,2.9c-5.5,7.9-13.5,6.4-21.3,6.7c-5.8,0.2-11.6,1.8-17.2,3.4c-8.9,2.6-17.4,6.4-26.4,8.4
		c-3.7,0.8-8.2-1.6-12.6-2.7c0,0.3,0,2.2,0,5.4c4.1,0.7,10.8,4,13.6,2c8-5.7,15.6-0.6,23.2-1.2c1.1-0.1,2.6,3.6,4,5.8
		c0.5-1.3,1.2-2.8,1.6-3.9c3.7,0.6,6.6,1.1,10.8,1.9c6.7-3.7,15-3.1,23.3-0.4c-0.4,3.6-0.8,7.1-1.2,10.7c-0.7,0-1.4,0-2.1,0
		c1.4,2.5,2.9,5,5.2,9.1c0-4.3-0.9-7.3,0.2-8.8c3.6-4.9,0.9-7.8-2.3-10.9c2.4,0.3,4.8,0.6,7.2,0.9c2.2,0.3,4.4,0.5,6.5,0.8
		c1,4.1,2,8.3,3.3,13.9c2-2.3,4.8-4.5,4.5-5.5c-1-2.7-3.3-4.9-5.2-7.3c3.9-1.3,7.9-2.6,11.8-3.9c0.3,0.6,0.6,1.2,0.9,1.8
		c-1.2,1.4-2.4,2.9-3.9,4.7c2.5,1.8,5,3.6,7.5,5.3c-5.7-1.5-6.5-0.1-6.3,9.1c3.6-0.8,7.3-1.6,12.2-2.6c-0.4-1.1-1.2-2.9-1.9-4.7
		c2.2,0,4.4,0.1,6.6,0.1c0,0-0.3-0.1-0.3-0.1c2.9,1.9,5.8,3.9,8.7,5.8c0.8-0.7,1.6-1.3,2.4-2c-1.1-3.1-2.1-6.1-3.2-9.2
		c3.3,1.4,6.5,2.7,9.7,4.1c-4.3,2.3-1.4,3.2,0.8,4.3c0,0-0.4,0-0.4,0c2-1.5,4.1-2.9,6.1-4.4c2.4,1.7,4.9,3.4,7.3,5.1
		c0,0,0-0.2,0-0.2c-0.7,7.8-8.1,6.1-12.4,7.5c-5.6,1.8-12.2,1-18.3,0.9c-15.8-0.1-31.5-0.6-47.3-0.6c-7.2,0-14.5,0.9-21.8,2.2
		c4.5,3.4,13.2-1.8,13.4,9c2.8-8.6,11-9,18.2-1.4c0.4-2.2,0.6-3.9,0.9-5.6c7.2,1.2,14.6,2.4,23.3,3.8c-0.2-0.3,0.5,1.1,1.1,2.2
		c7.6-2,14.8-3.9,22.3-5.9c0.6,2.2,1.2,4.6,1.9,7.4c2.9-3.5,2.8-13,10.3-3.5c1.9,2.5,11.5,1.9,15.2-0.7c5.7-3.8,9.5-2.1,14.2,0.2
		c1.4,0.7,3.3,1.5,4.6,1.1c6.4-2.2,12.7-5.1,19.1-7.3c4.4-1.5,8.9-3.4,13.9-1.2c1.3,0.6,3.4-0.7,5.6-1.2c0.1,2.7,0.2,5.4,0.4,8.8
		c-6.6,1.1-13,2.4-19.5,3.1c-20.2,2.1-40.4,4.3-60.7,5.6c-13.8,0.9-27.8,0.1-41.6,0.3c-1.8,0-3.7,1.1-5.5,1.7
		c-13.8-1.1-27.6-2.3-41.5-3.2c-5.7-0.4-11.4-0.1-17.1-0.1c6.8,2.6,13.7,3.7,20.6,4.5c3.6,0.4,7.3,0.5,11,0.8
		c5.6,0.4,11.7-0.5,16.6,1.6c4.8,2,7.4,1.1,10.3-2.1c1,2.4,2,4.8,3,7c3,1,6.1,2.1,9.4,3.2c-0.2-2.3-0.3-4.4-0.5-6.4
		c0.8-0.5,1.5-1.1,2.3-1.6c1.4,2.5,2.7,5,4.1,7.6c7.6-9.7,19.9-10.7,26.3-1.7c0.4-2.4,0.8-4.4,1.1-6.5c0.6-0.5,1.3-0.9,1.9-1.4
		c1.5,2.2,3.1,4.4,4.6,6.5c0.3,0.4,0.4,0.8,1.4,2.9c6.3-2.7,12.7-5.5,19.1-8.2c0,0.2,0.1,1.5,0.1,2.3c4-2,7.8-4.7,12.1-5.7
		c4.1-1,8.6-0.2,13.7-0.2c4.6,7.3,7.3,7.1,13.9-0.6c2.1-2.5,6.4-3.2,9.7-4.7c2.3-1,4.7-1.9,7.1-2.9c0,0-0.2-0.2-0.2-0.2
		c0,10.9,0,21.8,0,32.7c-1.2,0.3-3,1.3-3.4,0.8c-6.3-6.4-12-3.8-17.9,1.3c2.1-4.8,4.6-8.9,7.3-12.9c0.7-0.9,2.3-1.2,3.5-1.7
		c0.4,1.6,0.8,3.1,1.3,4.8c2-0.2,4.2-0.4,5.7-0.6c-1-3.1-1.8-5.9-2.9-8.7c-0.8-2-1.8-3.8-2.7-5.8c-2.3,1.5-6.1,2.5-6.6,4.5
		c-2.2,8-5.2,10.4-13.7,10.2c-2.8-0.1-5.7,1.1-8.6,1.7c3.7,3,7.4,5.1,9.8,8.2c2.3,3,3.4,7,5,10.6c0.3,0,0.6-0.1,1-0.1
		c0-2.3,0-4.6,0-6.9c0.8,0,1.6-0.1,2.4-0.1c0.1,2.4-0.1,4.8,0.5,7c0.7,2.6,2.2,4.9,3.7,8.2c2.3-4,3.7-6.5,5.7-10
		c-2.8,0.4-4.1,0.6-7.6,1.1c3.4-4.5,5.5-7.3,8-10.5c1.7,2.4,3,4.1,4.3,6c2-2.8,3.6-5.1,5.2-7.4c0,14.3,0,28.6,0,43.8
		c-1.9,0.3-4.5,0.6-8.6,1.2c2.2-4.9,3.8-8.5,5.4-12.2c-0.5-0.5-1-1-1.5-1.5c-2.9,3.1-7.6,5.9-8.3,9.4c-1.4,7.6-6.8,4.7-10.6,6.1
		c-0.5-0.6-1-1.1-1.5-1.7c2.9-2.9,5.7-5.9,9.3-9.6c-0.9-0.1-3.2-0.9-5-0.3c-4.1,1.4-7.4,2.3-10.3-2.4c-0.7-1.1-4.5-0.6-6.8-0.2
		c-1.3,0.2-2.6,1.5-3.5,2.6c-5.4,6.5-13.2,7.9-20.7,9.9c0,0-0.3,0.1-0.3,0.1c-2.6,2.1-5.2,4.2-8.8,7.1c3.5-15.1,8.7-18.8,16.8-13.7
		c5.4-4.1,10.6-8.1,15.8-12.1c-0.7-1-1.4-2.1-2.2-3.1c-2.4,1.3-4.7,2.9-7.2,4c-3.3,1.5-6.8,2.5-10.2,4c-4.1,1.7-8.2,3.4-12.1,5.6
		c-8.7,4.9-12.5,2.7-13.6-7.9c-1.5-14.8-10.9-19.3-23.2-11.1c-0.9,0.6-2.4,0.5-3.6,0.7c4.1-10.6,5.8-11,26.7-6.5
		c1.1,5.2,2.1,10.1,3.4,15.9c6.4-9.9,3.6-19.2-5.8-23.4c-6.8-3-13.4-2.8-20.1,0.2c-9.5,4.2-10,5.5-3.9,13.7
		c-0.4,1.6-0.8,3.3-1.6,6.1c3.7-1.1,7.3-1.3,9.4-3.1c4.2-3.6,5.2-0.4,7.3,2.1c-2.2,1.6-4.3,2.9-6,4.6c-4.6,4.4-8.8,3.1-13.3-0.1
		c-1.8-1.3-3.9-2.1-5.8-3.2c-0.8,2.5-1.7,5-2.5,7.5c13.5,2.4,25.8,3,36.5-6c0.5,0.7,1,1.4,1.6,2c-3.3,3.1-6.5,6.2-9.8,9.3l0.2-0.2
		c-2.3,2.1-4.6,4.3-6.6,6.2c4.6,3.1,7.8,5.3,11.1,7.6l-0.2-0.2c-6.7,4.3-8.5,0.1-12.8-5c-9.3-11.1-14.6-10.3-27.4-1
		c-0.4,0.3-0.9,0.3-2.5,0.9c-1.6-3.1-3.3-6.4-5.3-10.2c-2.3,0.9-4.8,1.8-6.7,2.5c2.7,3.2,4.8,6.7,7.9,9.2c3.2,2.7,7.3,4.4,10.9,6.5
		c0.4-0.5,0.9-1,1.3-1.4c-0.9-1.2-1.9-2.5-2.8-3.7c12.7-9.3,12.1-12.9,21,5.1c-8.5-6.1-16.1,7.6-24-1.1c-7.6,4.4-15.8,4.2-24.1,3
		c0.3-2.1,0.7-4.2,0.8-5c-5.3-5.3-10.4-10.2-16.4-16.1c3.6,6.4,6.8,11,8.8,16.1C377.1,1239.4,378.7,1241.2,382.6,1240.6z
		 M953.2,566.9l0.2,0c-2.5-1.9-5.1-3.7-7.6-5.5c-2.3,1.6-4.3,3-5.1,3.6c4.3,5.4,8.5,10.6,12.3,15.5c1.8-3.7,4.2-8.7,6.7-13.9
		c-1.3-0.3-2.9-0.7-4.5-1c-0.4,0.3-0.8,0.5-1.2,0.8l-0.2,0.5L953.2,566.9z M318.4,1161.7c-0.3,0-0.7,0-1,0c0.3-0.1,0.6-0.1,0.9-0.2
		c0.4-0.7,0.8-1.5,1.2-2.2c0.7-0.2,1.4-0.5,2.2-0.7c-0.1-0.2-0.2-0.4-0.4-0.5c-0.5,0.5-1.1,1-1.6,1.5
		C319.1,1160.3,318.7,1161,318.4,1161.7z M292.2,1136.9c-0.4,1-0.8,2-1.2,3.1c2,0.1,4.1,0.3,6.1,0.4c0,0,0.3-0.2,0.3-0.2
		c5.3,2.4,10.7,4.9,16.6,7.6c2.4-2.2,6.1-4,10.1,0.2c2.5,0.5,5,1,7.5,1.6c-0.4-0.7-0.9-1.4-1.3-2.1c1.9-3.1,3.8-6.2,5.7-9.4
		c0.5-2,1.5-4,1.2-5.8c-0.2-1-2.9-2.6-4-2.2c-4.8,1.6-9.3,3.8-14,5.8c0,0,0.2-0.2,0.2-0.2c-1.6-0.8-3.2-1.6-6.2-3.2
		c8.2-2.2,12.6-9.7,21-6.2c1.5,0.6,4.4-2.1,7.9-3.9c-10.4-1.2-18.9-2.2-27.5-3.3c1.5,2.5,2.9,4.7,4.7,7.7
		c-7.5,3.2-14.3,6.1-21.1,9.1c0,0-0.2,0-0.6-0.1c-1.1,0-2.2,0-3.3,0C293.8,1136.1,293,1136.5,292.2,1136.9z M179.7,917.2
		c0.1,2,0.3,4,0.4,6c0.7,0,1.5,0.1,2.2,0.1c1.2-5,6.3-9,3.3-16.7c-2.5,4.5-4.3,7.7-6.1,10.8c1.4-5.2,2.7-10.3,4.3-16.4
		c-6.8,6.3-9.9,13.3-9.8,21.7c-6.6,1-13.8-3.5-19.5,1.1c9.2,1,18.5,2.1,27.9,3.1c-1.3-0.8-2.7-1.8-4.2-2.5c-1.5-0.7-3-1.3-4.5-1.9
		C175.8,920.9,177.7,919.1,179.7,917.2z M785.2,909.3c-0.9-4-1.8-8-2.7-12.2c-2.2,0.9-4,1.7-5.1,2.1c0.4,3.8,0.8,7.1,1.2,10.7
		c2.7-0.5,4.8-0.8,6.9-1.2c0.2,2.8,0.4,5.5,0.7,8.3c1.4-0.1,3.8,0.1,3.9-0.4c0.7-2.3,0.8-4.7,1-7.1c0.1-0.6-0.1-1.3-0.3-2.8
		C788.5,907.8,786.9,908.5,785.2,909.3z M1011.9,1106.9c-7.9,4.6,3.7,8.4,0.6,12.9c1.3,0.3,2.6,0.5,3.7,0.7c0-3.9,0.3-7.5-0.1-11
		c-0.3-2.3-0.9-5.7-4.5-2.2c-0.1-0.2-0.1-0.3-0.2-0.5C1011.5,1106.8,1011.7,1106.9,1011.9,1106.9z M145.9,911
		c6.1-1.2,12.2-2.3,18.6-3.5c-2.1-0.7-4-1.4-7-2.5c4.1-3.3,7.2-5.8,11.5-9.3c-5.8,1.8-10.1,3.1-14.5,4.4c-4-1.8-8.1-3.6-12-5.4
		c-1.5,13.6-11.5-2.5-14.6,5.2c4.3,1.1,10.4,4.4,12.5,2.8c4.8-3.9,9.3-3.4,14.3-2.7c0.8,2.8,2.1,5.3-2.7,6.2c-2.2,0.4-4,3.3-6,5
		c-9.9,1.4-19.8,2.8-29.7,4.2C126.8,917.1,136.8,916.6,145.9,911z M902.2,638c1.1-1.7,2.1-3.4,3.2-5.1c-0.4-0.7-0.8-1.3-1.2-2
		c-6.7,1.8-13.3,3.6-20.5,5.5c5.3,0.9,9.5,1.9,13.8,2.4c1.6,0.2,3.3-0.8,4.9-1.2l-0.1,0.6L902.2,638z M1025.2,810.5
		c0.3-0.6,0.5-1.2,0.2-0.5c0-0.8,0-0.1,0,0.6c-3.5-1.5-7-2.9-10.5-4.4c-0.3,0.4-0.7,0.8-1,1.2c1.3,2.4,2.7,4.8,4,7.3
		c-0.4-0.1-0.7-0.2-1.1-0.2c0.6,4.2,1.1,8.5,1.7,12.7c0.9,0,1.8,0,2.7-0.1c0-5.1,0-10.2,0-15.3c0.7,0.3,1.4,0.7,2,1
		C1023.9,812,1024.5,811.2,1025.2,810.5z M1016.7,857.2c-2-3.4-4.5-6.6-5.9-10.3c-2.3-6.2-3.7-12.7-5.6-19.1
		c-1.2,0.3-2.4,0.6-3.6,0.9c0.4,1.8,0.6,3.7,1.2,5.4c1.3,3.4,3.1,6.7,4.2,10.2c1.5,4.6,2.2,9.5,3.9,14c0.4,1.1,3.1,1.4,4.7,2
		c0.2-1.2,0.3-2.4,0.5-3.6c1.5,0.1,3,0.1,4.4,0.4c5.2,1.3,6.7-1.1,6.6-5.8c-0.1-5.3-3.9-5.5-7.3-4.8
		C1012.1,847.9,1015,852.9,1016.7,857.2z M941.7,955.3c2.2,0.3,4.5,1.2,6.5,0.8c6.8-1.5,12,1.1,16.6,5.7c-0.7,1-1.4,1.9-2.1,2.8
		c7.4-1,2.6-7.3,5.6-9.9c-4.6-1.4-8.8-3.9-12.8-3.7c-4.7,0.3-9.2,2.9-13.8,4.5c-3.4-1.2-6.7-3.2-10.2-3.6
		c-8.3-0.9-16.8-1.1-25.2-1.7c0,0.6-0.1,1.2-0.1,1.9c3.6,0.3,7.2,0.7,10.8,1c0.9,3.9,1.9,7.8,2.8,11.7c0.3,0,0.6-0.1,0.8-0.1
		c0-2.9,0-5.7,0-8.1C928,956.2,934.9,955.7,941.7,955.3z M172.1,879.7c-2.3-2.1-4.3-5.3-7-6.1c-9.2-2.6-15.6,2-20,9.9
		c-0.2-5.7,2.5-9.8,7.7-11.6c4.4-1.5,9.2-1.9,14.4-3c-2.5-1.1-4.7-2-7.8-3.4c3.8-0.7,6.4-1.1,8.9-1.6c-0.2-0.8-0.4-1.7-0.7-2.5
		c-4.3,1.4-9,2-12.9,4.2c-8.7,5-14.6,4.7-22.4-1c-2.3-1.7-6-1.5-9.9-2.3c5.2,3.8,9.3,6.4,12.9,9.6c3.7,3.4,6.8,7.4,10.1,11.2
		c-2.9,6.3,4,7.8,5.8,11.8c4-2,10.8,2.3,12.7-6.8c-7.3,6-12.4,2.5-17.3-1.9c9.4-12.9,15.3-14.4,25.6-6.6c1.7,1.5,3.4,3,6.1,5.3
		c2.4-13,7.9-21.1,19.5-24.4c-3.2-0.1-6.9-0.1-8.7,1.7c-5.3,5.3-11,7.3-19.3,5.2c2.3,3.9,4.5,7.8,7.1,12.4
		C174.5,879.8,173.3,879.8,172.1,879.7z M799.1,1029c5.9,0.3,11.9,0.8,17.8,0.9c18.8,0.1,37.6,0,56.4,0c0-1.1,0-2.2,0-3.3
		c-23.6,0-47.1,0-70.7,0.1C801.5,1026.8,800.3,1028.2,799.1,1029c-7.1-1.8-14.2-3.7-21.4-5.2c-9.2-1.9-18.5-3.5-27.7-5.2
		c2.3,2.1,4.9,2.9,7.5,3.3C771.3,1024.3,785.2,1026.6,799.1,1029z M1003.3,930.9c-6.8,3.2-7.8,10.9-2,16.1c4.8-3.8-0.1-11,5-14.7
		c-0.8-0.4-1.7-0.9-2.5-1.3c5.2-1.4,6,1.8,5.7,6.3c4.1-6.3,2.4-11.9-1.7-16.2c-2.6-2.7-6-6.6-11.5-2.9c-4.9,3.3-4.3,6.9-3.2,9.8
		C997.1,929.3,1000.2,930.1,1003.3,930.9z M1002.1,793.6c2,2.2,4.1,4.5,5,5.5c4.1-1.5,6.4-2.3,8.8-3.2c0.7,2.5,1.4,5,2.5,9
		c0.9-3.7,1.5-6.3,2.2-9.1c4.1,0.7,8,1.4,13.5,2.4c1-0.3,3.6-1,6.8-1.9c-13.3-5.3-21-7.1-39-2.6c-3.7-0.7-7.6-2.4-11.1-1.9
		c-8.6,1.3-18-1.7-19.8-7.2c-5.1,1.1-10.1,2.2-15.1,3.2c0.1,0.5,0.3,1,0.4,1.5c1.8-0.2,3.5-0.5,5.3-0.7c0.2,0.6,0.3,1.2,0.5,1.9
		c-2.4,0.8-4.9,1.7-7.3,2.5c2.3,3.9-3.3,10.8,5,13.4c-0.9-2.8-2.4-5.1-2-6.9c0.4-1.8,2.4-4.3,4.1-4.6c3.9-0.7,8-0.6,11.9-0.3
		c4.4,0.3,8.8,1.9,13.2,1.7C992,796.2,997,794.6,1002.1,793.6z M1033.1,1055c0.7-2.7,1.4-5.4,1.9-7.1c-6.8,0.9-12.6,1.7-18.4,2.5
		c-0.2,0.5-0.3,0.9-0.5,1.4c5.7,1,11.5,2,17.2,3.1c-0.9,3.9-1.9,7.9-2.7,11.5c-3,0.2-5,0.3-6.6,0.4c-1.4,5-2.5,9.2-4.2,15.3
		c4-0.7,7.3-1.3,10.5-1.9c-0.9,2.7-1.9,5.5-2.9,8.4c0.8,0.6,1.5,1.2,2.3,1.8c3.7-3.4,7.5-6.7,11.1-10.3c0.4-0.4-0.4-2.9-1-3.1
		c-6.6-1.8-4.7-6.9-4.9-11.4C1034.8,1062,1033.8,1058.5,1033.1,1055z M663.1,760.1c2.2-3.3,4.9-6.4,6.5-10c0.7-1.7-0.1-5.7-1.3-6.2
		c-2.1-1-5.1-0.4-7.6,0.2c-1.1,0.3-1.9,2.1-2.8,3.3c1.6-3,3.2-6,4.5-8.2c-1.2-1.8-2.7-4-4.1-6.3c-1.3-2-2.1-4.9-4-6
		c-6.3-3.5-24.7,4.1-26.9,10.5c-1.6,4.6-3.6,9-5.6,14c5.4-0.9,10.1-1.6,15.6-2.5c0.4,2,0.8,4,1.2,6c3.7,0.9,7.4,1.8,11,2.7
		c0.5,4.5,1.1,9,1.8,14.6c7.8-7.5,6.6,1,8.2,3.3c3.2,0.4,5.9,0.8,8.5,1.2c3.3-12.8,3.3-12.8-1.1-19.9
		C665.6,758,664.3,759,663.1,760.1z M1004.5,1029.8c-0.2-0.1-0.4-0.3-0.6-0.5c-0.2-0.2-0.2-0.4-0.3-0.7c2.3-0.1,5-1,6.7-0.1
		c5,2.5,9.8,5.6,14.3,8.9c2.5,1.8,4.3,4.5,6.5,6.8c4.9-5.1,5.2-8.3,0.3-14.7c1-0.9,2-1.7,2.8-2.4c-13.3-2.8-26.3-5.6-39.6-8.5
		c1.3,14.3,4.6,21.4,10.9,24.2c-2.5-5.5-5-11.1-7.5-16.8c0.6-0.3,1.2-0.5,1.7-0.8c1,2,1.9,3.9,2.9,5.9c0.6-0.5,1.2-1.1,1.8-1.5
		c5.4,7.6,13.3,11.1,22.3,12.8C1019.3,1038.3,1011.9,1034,1004.5,1029.8z M355.9,1019.7c-13.4,8.6-28.7,8.9-44.1,9
		c0,1,0,1.9-0.1,2.9c9.8,2.3,19.7,4.6,28.7,6.8c1.7-1.4,3.1-3.7,4.7-3.7c3.2-0.1,6.6,1.8,9.7,1.5c5.8-0.6,11.5-2.1,17.2-3.2
		c-1.1-6.9-2.1-13.3-3.3-21.3c-5.3,3.4-9.1,5.8-12.9,8.3L355.9,1019.7z M984.2,528.2c2.4,5.9,5.9,5.5,10.3,0.5c0,2.8,0,4.4,0,5.4
		c2.8,0.6,5.1,1.1,7.5,1.7c-0.2,1-0.3,2-0.5,3c-4.2-0.5-8.3-1-13.4-1.6c3.6,3.7,7.1,6.7-0.5,8.1c-1.1,0.2-1.7,3-3.1,5.6
		c-2.6,0-6.2,0-10.4,0c4.9,1.9,9,3.5,14.2,5.5c4.3-5.2,8.6,0.2,13,2.5c0.6,3.9-10.1,6.2-0.8,10.5c0.1,0-0.8,2.9-1.7,4.1
		c-0.9,1.3-2.4,2.1-2.4,2.2c3.9,3.1,7.4,5.9,11.7,9.3c0-13.4-0.1-25.7-6.8-37.1c1.6-0.4,3.5-0.9,5.6-1.5c-0.6-4.4-1.1-8.9-1.7-13.4
		c0.8-1.4,1.9-3.5,3.4-6.3c-8.8,0.7-16.6,1.3-24.4,2l0.1,0.3L984.2,528.2z M468.3,1198.6c5.8,3.6,10.5,2.6,14.5-3
		c3.9-5.3,8.6-9.4,16.6-7.7c-1,1.6-1.6,2.6-2.8,4.6c4.2,0,7.7,0,12.8,0c-7.7-10-16.2-8.3-24.5-7c-5.8,0.9-8.7,4.9-9.6,10.8
		c1.4,0,2.5,0,3.6,0c0,0.4-0.1,0.7-0.1,1.1c-3.3,0-6.6,0-9.9,0c7.2-12.6,19-19.8,33-27.6c-3-2.4-5.1-5.5-7.6-5.8
		c-2.6-0.3-7.6,1.6-8,3.2c-1.6,8.2-7.9,7.2-13.6,9.4c-10.1,3.8-17.3-1.6-25.7-4.8c-4.4-1.7-9.6-1.5-14.4-2.1
		c-0.1,4.3-0.3,8.5-0.4,12.8c0,0.5,0,1,0,1.5c-4-0.3-8.2-1.5-12-0.8c-8.3,1.5-15.2-0.5-21.5-6.2c-2.8,2.2-5.5,4.4-7.9,6.3
		c13.9,8.8,27.6,7.6,41.3,0.5c8.3,0,16.6,0,25.7,0c3.1,9.3,6.4,19.5,10,30.6c1.2-0.3,3.6-0.8,6.2-1.4
		C472.1,1207.9,470.2,1203.3,468.3,1198.6z M122.7,949.6c0.3-0.9,1.1-2.3,0.8-2.5c-3.6-2.8-8.2-1.1-11.6,6c4.7-1.6,7.8-2.6,11-3.7
		c1.9,2.2,3.8,4.4,5.8,6.7c-4.5,0-8.6,0-12.6,0c5.2,1.4,11.6,0,11.2,8.7c-0.2,4.8,0,9.7,0,16.1c29-1.7,57.2-3.3,85.5-5
		c0.5,0,0.8-1.8,1.4-2.5c4.4-5.3,2.5-12,3.8-17.9c0.7-2.9,1.4-5.8,2.1-8.8c-0.5-0.2-1.1-0.3-1.6-0.5c-1.1,1.2-2.2,2.3-3.6,3.8
		c1.2-9.1,2.4-17.6,3.5-26.2c-0.4,0-0.8-0.1-1.1-0.1c-0.6,1.6-1.3,3.1-2.5,6.2c-0.4-2.9-0.6-4-0.6-4.3c-4.5,0.8-10.5,0-13,2.5
		c-10,10.1-21.3,3-31.4,2.7c-13.5-0.3-26.5-1.6-39.1,4.4c-4.7,2.2-9.9,3.7-15.1,4.5c-5,0.7-10.2,0.2-15.4,0.2
		c9.5,3.8,21.3-1.6,30.1,7.6C127.3,948.3,125,949,122.7,949.6z M315.5,1091c10.2-3.5,19.6-6.7,26.8-9.2c-4.4-0.4-10.8-1-17.1-1.6
		c33.7-3.4,67.2-3,100.5-7.9c-19-6.4-38.7-4.9-59.1-5.5c1.7-2.3,2.7-3.6,3.8-5c-6.9,0-13.4-0.6-19.7,0.1
		c-15.4,1.7-30.3,4.9-46.3,3.1c-14.1-1.7-28.8,0.9-43.2,1.9c-2,0.1-3.8,2-7.4,4c13.1,2.4,24.5,3,34.6,7c9.6,3.8,17.8,10.7,30.5,8.2
		C317.2,1088.6,316.5,1089.6,315.5,1091z M369.5,929.8c-2.6,0.4-5.2,1-7.8,1c-1.5,0-4.4-1-4.3-1.4c0.2-6-4.8-6-8.4-7.8
		c-3.7-1.9-6.9-4.9-10.7-6.3c-4.5-1.6-9.2-7.9-12.8-2.6c-6.4-2.1-11.7-4.8-17.2-5.4c-7.5-0.7-15.1,0.3-22.7,0.5
		c-0.7,0-1.6-0.2-2-0.7c-5.5-5.4-12-5.3-17.7-1.6c-4,2.6-9.3,3.2-14.6,4.9c1.4-3.6,2.2-5.4,2.9-7.1c-5.3,0.4-9.6,0.7-12.4,1
		c-2,3.2-3.6,5.8-4.6,7.4c1.3,0.8,3.2,2.2,5.2,3.1c1.8,0.8,4.6,2.2,5.8,1.5c8.5-5.1,16.2-0.7,23.2,2.7c10.3,5,20.1,2.1,30.4,1.2
		c-4.4-1.3-10.2-0.5-8.1-8.1c4.2,0.5,7,8.3,10.4,2.8c6.1,2.9,11.4,5.4,16.8,8c0.1-0.3,0.2-0.7,0.2-1c1.9,2.4,3.8,4.7,4.8,6
		c4.3-1.5,7.4-2.6,10.4-3.6c0.2,0.5,0.4,1,0.6,1.5c-1,1.3-2,2.6-3.5,4.5c3.2,0.7,5.8,1.3,9.5,2.1c-1.6-2.5-2.3-3.5-2.9-4.5
		C349.6,934,358.9,938.7,369.5,929.8z M974.5,1001.5c-0.6,0.1-1.1,0.1-1.7,0.2c0.6,9.9,1.2,19.8,1.8,29.8c0.5,7.8,1.2,15.6,1.3,23.3
		c0.1,9.8-0.5,19.6-0.4,29.4c0,2.2,1.7,4.3,2.6,6.5c0.6-0.3,1.3-0.5,1.9-0.8c1-2.6,2-5.3,2.7-7.1c-1.3-2.5-2.3-4.5-4.1-8
		c4.2,0.2,6.7,0.3,11.2,0.5c-3.1-5.7-5.7-10.5-8.7-16.2c1.8-0.8,4.3-1.8,6.9-3c0.2-4.7,0.5-9.3,0.7-13.8c0.7,0,1.3,0,2,0.1
		c0.3,6,0.4,12,0.9,18c0.3,3.4,0.5,9.3,1.9,9.7c4.2,1.2,9.3,1.3,12.6-3.4c0.8-1.1,3-1.7,4.5-1.6c1.9,0.3,3.7,1.5,6.3,2.7
		c0.9-7.1-2.3-10.3-6.8-12.8c-2.7-1.5-6.8-2.1-8.2-4.4c-4.4-7.2-9.9-14.1-9.2-23.4c0.2-2-0.3-4-0.5-6.1c-0.8,0-1.6,0.1-2.5,0.1
		c0.3,5.5,0.5,11,0.8,17.4c-3.9-2.2-7-3.8-11.1-6.1c2.6-1.4,3.8-2.1,5-2.8c3.6-2,4.2-5.1,0.4-6.6c-5.6-2.2-6.8-6.4-7.8-11.3
		C976.2,1008.5,975.3,1005,974.5,1001.5z M818.6,942.5c-0.2-0.8-0.4-1.7-0.6-2.5c-4.4,0-8.8,0.1-13.2,0c-10.7-0.2-21.4-0.4-32.1-0.7
		c-3.4-0.1-6.9-0.3-10-1.3c-11.8-3.8-24.2-0.7-30.3,7.3c2.5-0.2,5.5-0.5,8.4-0.7c-1.6,2.8-2.8,4.9-4,6.9c2.7,1.3,6.3,4.4,8.1,3.6
		c12.1-5.2,25-4.6,37.6-6.1c7.3-0.9,14.3-3.1,22.3-4.9c0.9,1.7,2.4,4.5,5.1,9.6C813,949.6,815.8,946,818.6,942.5z M125.4,845
		c-12,0.9-23.9,1.9-35.7,2.8c15.8,1.4,31.6,1.7,47.4,1.3c22.9-0.5,45.7-1.4,68.6-2.4c1.5-0.1,3-1.7,4.1-2.4
		c-10.2,0.6-19.7,1.1-29.8,1.7c2.6-7.2,4.6-12.7,6.8-18.6c-4.9-0.4-8.5-0.6-12-0.9c-1.3,20.8-1.3,20.8-14.8,19.6
		c3.7-6,7.9-12.8,12.6-20.5c-12.2-0.7-10.6,7.3-11.7,15.4c-2.1-12.4-2.1-12.4-8.5-13.2c0,6.3,0,12.4,0,18.4c-8,0-14.8,0-20.7,0
		c-0.9-2.5-1.6-4.2-2.2-5.9C128,842,126.5,843.7,125.4,845z M902.4,626.6c-0.7-4-0.8-5.9-1.4-7.6c-1.9-5.5,0.2-8,5.7-9
		c4.8-0.9,10.1-1.5,14-4c7.7-4.9,14.5-11.2,24.7-9.7c0.5,0.1,2-2.1,1.8-2.6c-0.6-1.1-2.1-2.6-2.9-2.4c-7.2,2-15.4,2.7-21.1,6.9
		c-10.8,7.9-19.5,8-26.9-1.8c-1.6-2.1-5.3-2.7-8.1-4c-1.2,2.9-3.7,5.9-3.4,8.5C886,611.6,893.8,618,902.4,626.6z M521.3,1025.2
		c-1.9-0.7-3.4-1.3-5.5-2.1c1.9-1.1,3-1.7,5.7-3.1c-4.8-0.3-7.9-0.4-11.6-0.7c1.8,6.8-0.6,9.7-7,10c-8.3,0.4-16.6,1.4-25.3,2.3
		c1.2,4.2,2.8,9.7,4.2,14.7c3.6-1.3,6.4-2.4,9.6-3.6c0.3,1,0.7,2.3,1,3.4C503.4,1041.1,520,1043.5,521.3,1025.2z M942.6,503.1
		c0.7-0.3,2.6-1.6,4.7-1.7c6.4-0.3,12.7,2.7,19.3-0.5c1.7-0.8,5.3,2.5,8.4,4.1c4.2-4.9,10.9-3.9,14.4,3.3c7.1-6.7,12.3-5.5,17.3,3.6
		c0.3-6.7,0.6-13.4,0.9-20c-2.2,0.9-4.1,1.7-5.8,2.3c3.2,4.6,0.6,6.8-3.1,6.6c-9.1-0.5-18.2-1.8-27.2-2.7c-3.9-0.4-7.8-0.9-11.7-0.8
		c-12.9,0.4-25.8,0.6-38.6,1.6c-10.2,0.9-20.3,2.9-30.5,4.4c0.1,0.7,0.2,1.4,0.4,2.1C907.7,504.6,924.3,500.2,942.6,503.1z
		 M457.5,939.9c0.1-0.2,0.2-0.5,0.3-0.7c3.8-0.2,7.7-0.4,11.6-0.5c0-4.4,0-8,0-13.1c-10.7,2.3-20.5,4.5-29.8,6.5
		c-0.2,3.8-0.4,7.4-0.6,11.4c10.5,0.5,20.5,1,30.4,1.5c0.1-1.1,0.2-2.3,0.3-3.4C465.6,941,461.5,940.4,457.5,939.9z M894.4,486.9
		c38.7-6.2,75.8-5.5,115.3,0.6c-4.6-4.3-7.8-7.4-9.5-9c-5.1,1.2-8.7,2.7-12.3,2.7c-5.9,0-11.8-1.4-17.7-1.4
		c-15.8-0.1-31.6-0.6-47.3,0.5c-11.2,0.7-11.2,1.7-13.3-10.5c-1.1,6.8,1.6,15.7-9.7,12.6C898.8,482.1,897.1,484.5,894.4,486.9z
		 M1001.5,1012.7c2.2,1,4.2,2.7,5.9,2.5c3.6-0.4,7.3-1.5,10.7-2.9c5.7-2.4,15.6,3.6,16.2-7.5c-17.3,0-35,0-52.7,0
		c5.3,7.9,9.8,10.5,18.3,9.8C1000.7,1014.4,1001.3,1012.9,1001.5,1012.7z M822.3,945.2c0.2,0.6,0.4,1.2,0.6,1.7
		c6-1.3,11.2,3.7,18,0.8c4.6-2,11,0.9,16.5,0.1c2.8-0.4,5.1-4,7.6-6.1c-2.3-2.1-4.3-5.2-7-5.9c-1.8-0.5-4.6,2.2-6.9,3.5
		c0.2,0.4,0.4,0.7,0.6,1.1c3-0.5,6.1-1,9.1-1.5c0.1,0.9,0.2,1.8,0.3,2.7c-3.9,0.2-7.9,0.5-11.8,0.5c-6.8,0.1-13.6-0.2-20.4,0.2
		C826.6,942.4,824.5,944.2,822.3,945.2z M117.9,927.4c13,4.8,24.6,1.2,35.2-6.1c2.6-1.8,3.5-5.9,5.2-8.9c-3.3,0.3-7.3-0.4-9.8,1.2
		c-7.6,5.1-15.6,7.6-24.6,7.4c-4.2-0.1-8.5,0-12.7,0c15.8,3.7,30.9,2.7,43.9-8.5C145.7,925.4,132.5,928.1,117.9,927.4z M118.8,855.5
		c0,0.9-0.1,1.8-0.1,2.7c26.9,0,53.8,0,80.7,0c0-0.9,0-1.8,0-2.7C172.5,855.5,145.7,855.5,118.8,855.5z M1019.1,1074.2
		c-3.7-1.7-7.3-3.4-13.3-6.1c1.9,8.3,2.9,15.2,5.4,21.5c0.3,0.9,7.4-0.8,12.6-1.5C1016.3,1083.5,1018.5,1078.4,1019.1,1074.2z
		 M687.6,989.4c0-0.6,0.1-1.2,0.1-1.7c-4.4-1.3-8.9-2.4-13.2-3.9c-2.5-0.9-6.5-2.5-6.7-4.1c-0.9-8.6-6.4-7.3-13.4-6.6
		c4.8,6.6,8.9,12.5,11.8,16.4C674.6,989.4,681.1,989.4,687.6,989.4z M631.4,595c21.5,0,43,0,64.5,0c0.1-0.6,0.1-1.3,0.2-1.9
		c-9.7-0.6-19.4-1.2-29.1-2c-2.3-0.2-4.5-1.2-7.7-2.2C651.9,594.9,640.6,589.4,631.4,595z M518.2,1042c0.4,0.2,0.8,0.4,1.1,0.6
		c2-0.6,4.1-1.8,6.1-1.8c15-0.1,29.9,0.4,44.9,0.1c9.2-0.2,18.3-1.2,27.5-1.9c-2.5-1.5-4.9-1.6-7.3-1.5c-22.4,0.5-44.7,0.9-67.1,1.5
		C521.5,1039.1,519.9,1041,518.2,1042z M418.5,954.8c0.3,0,0.7,0,1,0c0-0.9-0.1-1.9,0-2.8c0.9-4.8-2.4-11.4,5.7-13
		c-0.4-1.8-0.1-4.3-1.2-5.3c-4.3-4.1-3.5-10.7,1.7-14c1.2-0.8,1.2-3.5,1.8-5.4c-1.4,0-2.9,0-4.5,0c-0.7-2.7-1.5-6-2.3-9.4
		c-0.9,0.3-2.1,0.5-2.1,0.7C418.5,922,418.5,938.4,418.5,954.8z M907.1,571.6c10,0.8,20,0.5,27.9,11.2c0.2-3.4-0.1-4.9,0.4-5.8
		c3.5-6.5,2.8-8.2-4.7-7.8C922.8,569.5,914.9,570.7,907.1,571.6z M279,994.6c1.3,2.7,2.5,5.1,4.1,8.4c6.7-2.8,13.4-5.7,19.4-8.2
		c-1.6-2.5-3-4.4-3.2-4.8C291.3,991.8,284.7,993.3,279,994.6z M403.9,1210.9c1.5-2.1,3.9-4.1,4.2-6.4c0.8-5.8-8.5-13.8-17.1-15.6
		c-7.1-1.5-13.4,1.8-16.8,9.5c6.5-7.1,14.1-8.2,21.2-4.8C401.7,1196.5,403.6,1203.2,403.9,1210.9z M341.1,999.5
		c4.1-3.3,8-6.6,11.9-9.8c-0.4-0.8-0.8-1.6-1.1-2.4c-4.4,0.4-8.8,0.9-13.3,1.3c0.1,0.6,0.1,1.2,0.2,1.9c0.8,0.6,1.7,1.2,4.1,2.9
		c-8.2,0-14.5,0-21.3,0c1.8,2.4,3.1,4.1,4.4,5.8C330.8,991.9,335.4,995,341.1,999.5z M936.4,674.1c7.5,1.5,15.7-1.3,21.3,7.2
		c0.2-2.8,0.3-4.8,0.4-6.8c2.3,0.1,4.3,0.2,7.7,0.4C950.7,667.2,946,667.1,936.4,674.1z M970.1,1081.7c-14.8,0.7-27.7,1.2-40.8,1.8
		C936.6,1087.7,963.3,1087.4,970.1,1081.7z M929.4,549.5c2.7,8.7,7.6,4.5,11.6,3.2c1.5-0.5,2.7-2,4-3c-1.4-1.1-2.8-3.3-4.2-3.2
		c-5.4,0.2-10.8,1-16.2,1.6c0.5,2.3,0.8,3.8,1.4,6.8C927.5,552.4,928.3,551.2,929.4,549.5z M134.4,830.8c-1.5,0.4-4.1,1-6.1,1.4
		c-0.2,2-0.4,4-0.7,6.4c2.1-0.5,4.1-1,6.2-1.5c1.8,8.5,4.3,9.3,10.7,5C141.4,838.7,138.2,835.1,134.4,830.8z M661.4,809.7
		c0.4-0.3,0.8-0.6,1.3-0.8c-2.4-2.7-4.8-5.5-6-6.7c-2.6-5.2-4.5-9.1-6.4-13c-0.8,0.3-1.6,0.6-2.4,1c0.5,4.9,1.1,9.9,1.4,12.5
		C654.3,805.6,657.9,807.6,661.4,809.7z M954.2,736.6c-0.9-0.8-1.8-1.5-2.7-2.3c4.9,1.4,9.8,2.9,14.7,4.3c0.2-0.3,0.4-0.6,0.6-0.9
		c-2.2-2.1-4.5-4.2-7.7-7.2c3-0.7,5.2-0.8,6.9-1.8c1.5-0.9,2.3-2.9,3.7-4.6c-4.9,0.4-8.3,0.7-12.9,1.1c2,0.8,3,1.2,4,1.6
		c-1.5-1.4-3-2.9-4.4-4.3C955.5,727.2,954.8,731.9,954.2,736.6z M385.1,1185.4c0.2-1.2,0.5-2.5,0.7-3.7c-9.7-2-19.4-4-29.1-5.9
		c-0.2,1-0.5,2.1-0.7,3.1C365.6,1181.1,375.4,1183.2,385.1,1185.4z M718.8,807c-14.3,0-28.6-0.1-42.8,0.2c-1.2,0-2.4,2.6-4.4,5
		C688.3,805.9,703.8,810.6,718.8,807z M672.7,816.5c-0.2,0.6-0.4,1.2-0.6,1.7c14.4,0,28.9,0,43.3,0c0-0.6,0-1.2,0-1.7
		C701.2,816.5,687,816.5,672.7,816.5z M326.8,1094.6c8.4-3.9,16.6-2.9,25.9,2.4C345,1086.5,333.3,1085.7,326.8,1094.6z
		 M645.4,1049.3c-1.4-2.2-2.1-3.3-3.7-5.9c7.5,2,13.6,3.5,19.7,5.1c1.8-5.1,1.1-7.6-4.2-7.1c-7.2,0.7-14.4,1.3-21.4,1.9
		C638.7,1045,641.4,1046.8,645.4,1049.3z M390,1213.8c-13.4,7.9-16.4-0.9-19.4-11.6c-1.8,7.8-4.3,12.9,2.8,15.4
		C378.7,1219.5,384,1222.4,390,1213.8z M170.1,913.7c6.2-6.1,6-16,16.8-14.1c-0.5-0.8-0.9-1.6-1.4-2.4c-5.1,0.5-10.2,0.9-14.3,1.3
		C170.9,903.4,170.6,907.5,170.1,913.7z M708.5,1024.5c-6.5-8.8-13.3-6.4-21.1-2.8C694.4,1026.5,701.3,1024.5,708.5,1024.5z
		 M801.5,902.7c-2.8,5-4.7,8.5-6.8,12.4c5.3,1.5,8.7,2.5,12.7,3.6C805.3,913.2,803.9,909.1,801.5,902.7z M1048.4,804.7
		c-0.7,0.5-1.5,0.9-2.2,1.4c-2.3,10.1-2,10.5,11.7,12C1054.1,812.7,1051.2,808.7,1048.4,804.7z M1047.9,918.3
		c-2.4,0.1-4,0.3-5.4,0.3c1.1,1.9,2.1,3.7,3.4,6.1c-4.6,0.6-8.1,1-11.6,1.5c0.1,0.9,0.2,1.8,0.2,2.7c3.6-0.3,7.2-0.6,11-0.9
		c0.2,1.5,0.4,3.2,0.6,4.8c0.9,0,1.8-0.1,2.8-0.1C1048.6,928.1,1048.3,923.5,1047.9,918.3z M967.3,930.9c-2.8-8.1-8.3-9.4-18.1-6.2
		C955.2,926.7,960.5,928.5,967.3,930.9z M944.8,834.7c8.5,4.4,22.9,4.4,26.1,0C961.8,834.7,953.3,834.7,944.8,834.7z M949.4,513.7
		c4.3,1.5,8.6,3.3,13.1,4.6c1.3,0.4,2.9-0.8,4.4-1.2c-0.7-1.4-1-3.2-2-4.2C959.1,507.8,954,513.5,949.4,513.7z M206.8,904.3
		c-9.4,0.4-12.6,4.7-14.1,15.7c3.1-4.8,5.8-9,8.5-13.3c0.6,0.3,1.2,0.6,1.8,1c-1.9,3.7-3.9,7.5-5.8,11.2c0.4,0.2,0.9,0.4,1.3,0.7
		C201,915,203.5,910.4,206.8,904.3z M7.5,1056.1c-0.1,0.6-0.3,1.2-0.4,1.8c13.9,3.2,27.7,6.5,41.6,9.7c0.1-0.6,0.2-1.1,0.4-1.7
		C35.2,1062.6,21.3,1059.3,7.5,1056.1z M704.2,981.8c-4.6-1.2-9.8-2.5-14.9-3.8c-0.5,0.6-0.9,1.3-1.4,1.9c2.6,2.5,4.8,6.1,7.8,7
		C697.5,987.5,700.6,984.1,704.2,981.8z M186.4,895.1c0.4-0.8,0.8-1.6,1.2-2.4c-4.3-1.7-4.7-11.2-15-4.6
		C178.2,890.9,182.3,893,186.4,895.1z M631.9,810.3c-0.3,0.4-0.7,0.7-1,1.1c2.3,1.4,4.9,4.3,6.7,3.9c3.6-1,9.1,1.1,12.2-5
		C642.7,810.3,637.3,810.3,631.9,810.3z M655.8,1119.6c4.8,7,7.8,7.6,21.2,3.3C669,1121.7,662.6,1120.7,655.8,1119.6z M1054.9,835.7
		c2-3.8,4.2-6.1,4.2-8.4c0-1.8-2.6-3.8-4.4-5.3c-0.6-0.5-2.3-0.2-3.2,0.3c-0.6,0.3-1,1.8-0.8,2.5
		C1051.7,827.7,1052.9,830.6,1054.9,835.7z M367.2,1146.7c-0.3-4.6-12.5-7.5-21.6-3.8C353.5,1144.2,360.2,1145.4,367.2,1146.7z
		 M350,1084.4c4.5,1.7,7.7,3,10.7,4.1c3.8-2.1,7.6-4.2,13.2-7.2C364.9,1082.4,358.1,1083.3,350,1084.4z M948.3,537.1
		c0.1-0.8,0.1-1.6,0.2-2.4c-7.9,0.5-15.8,1-23.7,1.6c0,0.7,0.1,1.4,0.1,2.1C932.7,537.9,940.5,537.5,948.3,537.1z M646.1,825.3
		c6.1,2,9.8,3.2,12.2,4c3.7-2,6.8-3.6,9.9-5.2c-0.3-0.5-0.6-1.1-1-1.6C660.9,823.3,654.4,824.2,646.1,825.3z M950.7,993
		c2.2-3.3,3.8-5.7,5.4-8.1c-0.3-0.5-0.5-1-0.8-1.5c-5.7,2.6-11.4,5.3-17,7.9c0.4,0.8,0.8,1.6,1.2,2.4c2.3-1.3,4.5-2.6,7-4
		C947.8,990.7,949.2,991.9,950.7,993z M164.7,817.1c0.2,0.7,0.4,1.4,0.6,2.1c13.9-0.7,13.9-0.7,14.7-6.5
		C174.6,814.2,169.7,815.7,164.7,817.1z M1012.2,779.9c-9,0-18.8-8-27.4,0C994.1,779.9,1003.1,779.9,1012.2,779.9z M66,887.1
		c5.4,2.4,10.5,4.6,17,7.5C77.9,887.2,77.9,887.2,66,887.1z M684.1,578c-7.8,0-13.1,0-19.3,0c0.8,3.4,1.3,5.2,1.5,6.1
		c3.3-0.8,6.1-1.3,8.8-2.2C677.7,581,680.3,579.6,684.1,578z M395.5,1202c-8.2-6.9-12.1,1.6-17.7,2.5c0.1,0.6,0.3,1.3,0.4,1.9
		C383.6,1205,389,1203.7,395.5,1202z M346.9,1102.9c-2.5-2.6-4.1-5.6-5.7-5.6c-3.9-0.1-7.8,1.1-11.7,1.8c0.2,0.5,0.3,0.9,0.5,1.4
		C334.7,1101.2,339.6,1101.9,346.9,1102.9z M688.9,772.8c0.1-0.8,0.2-1.6,0.4-2.5c-5.8,0-11.5,0-17.3,0c0,0.8,0,1.6,0,2.5
		C677.6,772.8,683.2,772.8,688.9,772.8z M945.5,526.1c10,0.3,10,0.3,12,5.6c1.5-2.1,2.6-3.7,3.9-5.7
		C955.6,525.4,950.5,518.6,945.5,526.1z M329.8,1018.5c-1.2,1.3-3.2,3.3-5.2,5.4c3.9,1.1,7.8,2.1,12.3,3.3
		C334.2,1023.8,332.3,1021.5,329.8,1018.5z M418.2,1201.9c-0.2-0.9-0.2-1.5-0.5-1.9c-1.7-2.8-3.4-5.6-5.1-8.4
		c-1,0.6-1.9,1.2-2.9,1.8c2,2.8,3.9,5.6,6,8.3C415.9,1202.1,417,1201.9,418.2,1201.9z M972.6,1117.7c-3.3-1.4-6.1-2.6-10.4-4.5
		c3.1,5.3,5.2,9,7.7,13.4C970.9,1123.4,971.5,1121.1,972.6,1117.7z M190.2,901.5c0.3,3.1,0.5,5.7,0.8,8.1c3.8-4.3,7.4-8.3,12.5-14.1
		C197.9,898,194,899.7,190.2,901.5z M967.8,1196.3c0.1-0.6,0.2-1.3,0.3-1.9c-5.9,0-11.8,0-17.8,0c0,0.6,0,1.3-0.1,1.9
		C956.1,1196.3,961.9,1196.3,967.8,1196.3z M720.6,787.4c1.5-6.9,0-7.8-11-4.9C713.3,784.1,717,785.7,720.6,787.4z M1111.1,706.9
		c-3.4-2.1-6.8-4.2-10.2-6.3c0.4,1.4,0.7,2.8,1.4,5.6c-3.1-2-4.8-3.1-6.7-4.4C1097.9,710.4,1105.6,705.6,1111.1,706.9z M90,1003.5
		c1.4,2,2.6,3.7,4.1,5.7c1.5-8.5-4.4-8.4-9.8-10c0,3.2,0,5.6,0,10.2c1-3.5,1.4-4.9,2-7.2c0.5,2.5,0.8,3.8,1.2,5.9
		C88.6,1006.2,89.1,1005.2,90,1003.5z M41.7,952.1c6.4,4.2,10.1,1.7,12.3-4.5C49.9,949.1,45.8,950.6,41.7,952.1z M55.5,996.8
		c0-0.7,0-1.4,0.1-2.1c-4.1-0.8-8.2-1.5-12.6-2.4c-0.5,1.2-1.1,2.6-2.2,5.4C46.4,997.4,51,997.1,55.5,996.8z M112.7,858.8
		c-0.3-1.1-0.4-1.7-0.5-1.7c-7.2,0-14.3,0-21.5,0c0,0.6,0.1,1.2,0.1,1.8C98,858.8,105.2,858.8,112.7,858.8z M694.3,573.3
		c0.4,8-4.6,8.8-10.4,9.4c4.3,0,8.6,0,13.6,0C696.2,578.9,695.3,576.1,694.3,573.3z M357.8,1237.2c1.6-1.4,3.2-2.9,5.3-4.8
		c-7.2,0.9-1.5-11.6-9.6-9.5C354.9,1227.8,356.3,1232.3,357.8,1237.2z"/>
	<path class="st1" d="M1639.3,955.4c-10.2,0-20.4,0-30.6,0c-0.2-0.5-0.4-0.9-0.6-1.4c4.2-2.1,8.3-4.2,12.5-6.3
		c0.3,0.6,0.7,1.3,1,1.9c-1.5,0.8-3,1.6-6.3,3.4c7.7,0,13.6,0,20,0c2.6-7.6-7.6-4.1-8.3-8.9c1,0.1,2.2,0.2,3.3,0.3
		c-3.2-14.6-3.2-14.6,18-15.7c0.1-2.7,0.3-5.5,0.4-9c-3.7,0.5-6.6,0.9-9.5,1.1c-2.7,0.2-5.4,0-8.4-1.5c4.3-0.6,8.5-1.5,12.8-1.6
		c4.2-0.2,5.8-2.1,5.8-6c0-3.2-0.1-6.5,0.1-9.7c0.4-6.1-1.8-9.3-8.4-9.1c-1.5,0-3.1-2-4.6-3c1.8-0.8,3.5-2.3,5.3-2.3
		c3.4,0.1,6.8,1.1,10.4,1.8c-0.3-3.1-0.6-6.2-0.9-9.3c0.4-0.1,0.8-0.2,1.2-0.3c0.5,1.4,1,2.8,1.6,4.3c14.8-10.2,13.3-24.9,10.5-39.6
		c-1.2-6,2.3-11.4,8.5-11.9c3.4-0.3,6.8-0.8,10.6-1.3c0-0.6,0.2-1.7,0.2-2.8c0.1-12.3,0.1-12.7,12.5-12.1c5.5,0.3,11.8-1.7,16.2,3.5
		c1.7,2,2.7,4.6,4.7,8c-8.8,0.8-15.9,1.4-23.2,2c8.1,1.8,15.9,3.6,23.7,5.3c1.4,0.3,3.5,0.4,4.2-0.4c4.6-4.9,10.2-2.2,15.5-2.6
		c3.8-0.2,7.4,4.6,11.7-0.6c1.8-2.1,11.2,7.2,9.9,10.7c-0.6,1.7-3.5,2.5-3.9,2.7c1.2,2.2,4,5,4.1,7.9c0.5,11.4,0,22.8,0.2,34.2
		c0.1,5.2,1.4,10.3,1.4,15.5c0,3.3-1.4,6.5-1.9,9.8c-0.3,1.6-0.2,3.3,0.1,4.9c0.9,5.8,2.1,11.5,3,17.3c0.5,2.9,0.9,5.8,1.1,8.7
		c0.2,2.8-0.2,5.7,0.2,8.5c0.4,2.7,1.1,5.5,2.4,7.9c1,1.9,3,3.3,5.7,6.2c4.5-1.7,11-4.3,17.4-6.8c-0.3-0.6-0.5-1.2-0.8-1.8
		c2.7,1.2,5.4,2.3,7.2,3.1c1.2-4.1,2.3-8,3.6-12.8c-3.4,1.9-6.2,3.5-8.7,5c-1.7-2.2-3.1-4.1-5.5-7.3c3.2-1.3,6-2.8,8.9-3.5
		c4.4-0.9,9.7-0.5,4.4-9.5c1,0.1,1.9,0.2,2.9,0.4c4.7,2.7,9.5,5.5,14.5,8.4c0.1-6.5-7.4-6.8-10.6-10.8c6.6-2.1,13.3-4.2,19-6.1
		c2.7,2.9,5.4,5.7,8.4,8.9c1.9-2.7,3.1-4.9,4.8-6.5c0.8-0.8,3.7-1.1,4-0.6c5.9,9.4,14.1,2.9,21.8,3.7c-0.5-2.1-0.8-3.6-1.6-7.4
		c4.6,2.3,7.5,3.7,10.5,5.2c-0.1-0.3-0.2-0.7-0.3-1c5.3,0.7,10.6,1.4,16,2c3.6,0.4,7.2,0.8,10.8,1.2c-2.3,2.4-4.5,4.8-6.9,7.3
		c7.3,3.6,11-1.1,15-6.5c-3-0.2-5.7-0.4-8.3-0.7c4.7-0.7,9.4-1.5,14.1-2.2c-2.3-8.2-0.9-9.6,8.1-8.2c0,16.5,0,33,0,49.5
		c-24.8-0.1-49.6,0.1-74.4,2.3c13.8,6.8,13.8,6.5,27.1,4c4.3-0.8,9.6-1.3,13.2,0.5c6.9,3.5,13.7,4.1,21,3.3
		c4.4-0.5,8.7-0.7,13.1-1.1c0,1,0,2,0,3c-6,0.4-11.9,0.9-17.9,1.3c0,0.9,0.1,1.7,0.1,2.6c6-1.6,11.7,7.7,17.8-0.9
		c0,10.5,0,21,0,31.5c-20-0.8-40-1.6-60.1-2.4c6.3,7,16.1,2.7,21.5,10.3c0.4,0.5,1.9,0.3,2.8,0.2c11.9-0.2,23.8-0.5,35.7-0.7
		c0,1,0,2,0,3c-12.6,0-25.1,0-37.7,0c-0.3,1-0.7,1.9-1,2.9c3.6,2.2,7.1,4.5,10.9,6.9c1.7-1.5,3.3-2.9,4.8-4.2
		c1.9,1.6,3.9,4.2,4.8,3.9c6.2-2.3,12.1-5.2,18.1-7.9c0,6.5,0,13,0,19.5c-23.4-5.4-46.9-10.8-70.3-16.3c-3.9-1.4-7.8-2.9-12-4.5
		c0,38.7,0,76.8,0,114.9c-0.2,0-0.4,0.1-0.6,0.1c-0.9-16.5-1.8-33.1-2.7-50.7c-22.4-1.6-44.6-3.1-67.3-4.7
		c-0.3-4.8-0.6-9.2-0.9-13.9c-9.7,1.5-0.7,5.4-0.9,6.8c-3.2,2.9-5.7,5.1-9.3,8.4c-0.4-4.2-0.7-6.5-1-9.6c-1.3,0-2.6,0-3.9,0
		c0.1,0.9,0.6,2.3,0.2,2.7c-2.6,2.4-5,5.6-8.1,6.6c-5.6,1.8-7.1,5.3-7,10.4c-3,4-6.4,6.2-11.3,2.9c-0.4-0.1-0.6-0.1-0.6-0.1
		c-1.4,1-3.4,1.6-4.2,2.9c-2.7,4.4,0.3,28,4.3,30.9c2.1,1.6,5.8,1,9,2.2c-3.9,0.7-7.9,1.4-12.9,2.3c0,9.3,0,18.9,0,30
		c-31.3-2.7-61.9-5.4-92.2-8c-1.7-11.6-1-12.5,9.1-11.4c4.2,0.4,8.4,0.8,12.7,1.2c0-23.8,0-47.3,0-70.1c-1.7-0.9-2.1-1.3-2.5-1.3
		c-14-1.1-13.7-1-12.6-14.8c0.4-5.7-1.2-11.5-1.5-17.3c-0.3-4.7,0-9.4,0.1-14c0-0.4,0-0.8,0-1.2c1-2.8,2-5.7,3-8.5
		c-0.1,2-0.3,4-0.4,6c1,0.1,2.1,0.1,3.1,0.2c7.4-17,4.4-34.9,2.6-53c-6.9-0.7-13.8-1.4-20.6-1.9c-1.3-0.1-2.7,0.7-3.9,1.4
		c-14.7,8.1-28.8,4.3-42.8-2c-1.7-0.8-2.8-3.1-4.2-4.7c8.2,2.6,15.8,6.2,23.8,7.4c6.1,0.9,12.6-1,18.9-1.8c3.9-0.5,8.3-0.6,11.6-2.4
		c2.8-1.5,4.3-5.3,5-8.7c3.9-0.9,7.7-1.7,12.7-2.8c-1.5-2.4-2.5-3.9-3.4-5.4c2.2,1.8,4.4,3.5,7.8,6.2c-0.7-10-1.3-18.7-1.8-26.7
		c-2.3,0-4.3-0.3-6.3,0.1c-2,0.3-3.9,1.2-6.2,2C1643.9,944.2,1645,946.2,1639.3,955.4z M1843.1,944.3c-6.3-2.7-9.7,2.3-14.2,4.9
		c-2.1,1.2-5.9-0.6-9-1c0.8-1.5,1.5-3,2.8-5.6c-7.2,4.2-13.5,8-20.7,12.2c13.8,0,25.6,0,39.4,0c-6.3-3.1-7-5.5-2.3-8.2
		c1.3-0.7,2.5-1.6,3.7-2.5c4.6-1.5,9.2-2.8,13.7-4.6c1.9-0.8,3.5-2.6,5.2-4c-0.5-0.8-1-1.5-1.5-2.3c-5.1,0.8-10.2,1.5-15.2,2.6
		c-2.3,0.5-4.4,1.7-6.6,2.6C1840,940.5,1841.5,942.4,1843.1,944.3z M1742.5,978.4c-4.3-0.3-8.3,0.5-9.1-0.8c-2.9-4.4-5.6-2.9-8.7-1
		c-2.9,1.8-5.6,3.9-8.7,5.2c-5.4,2.2-11,3.8-16.9,5.7c21.9,1.1,43.2,2.1,64.5,3.2c0.4-9.8-2.1-13-11.6-14.8
		c-6.5-1.2-6.7,3.1-6.9,7.3c-4.4,0-8.3,0-12.1,0c-0.1-0.5-0.3-1-0.4-1.4C1735.4,980.8,1738.2,979.9,1742.5,978.4z M1807.9,970.1
		c-8.3,0.8-14.3,1.3-20.3,1.9c0.1,0.9,0.2,1.7,0.3,2.6c5.2-0.5,10.6-0.3,15.4-1.8c4.9-1.6,9.3-5,13.8-7.6c-3.3-9.2-7.8-9.4-15.9-1.2
		C1803,965.6,1804.7,967.2,1807.9,970.1z M1710.8,895.7c10.8,0,20.4,0,31.5,0C1730.8,890.2,1721,890,1710.8,895.7z M1840.6,1000
		c-0.1-0.7-0.2-1.4-0.3-2.1c-10.9,0.7-21.7,1.4-33.6,2.1C1818.7,1000,1829.7,1000,1840.6,1000z M1764.4,1034.1
		c7.4-1.3,14.2-2.5,20.9-3.7c0-0.4,0-0.7,0-1.1c-7.1-0.3-14.3-0.6-22-1C1763.7,1030.3,1764.1,1032.4,1764.4,1034.1z M1731.3,1052.6
		c0.1,1,0.2,2,0.3,3c6.6-1.1,13.2-2.3,19.7-3.4c-0.1-0.8-0.2-1.6-0.4-2.4C1744.5,1050.7,1737.9,1051.6,1731.3,1052.6z
		 M1828.7,1028.5c-0.3-1-0.6-2-0.9-3.1c-5.9,1.8-11.8,3.6-17.8,5.5c0.2,0.7,0.4,1.4,0.6,2.1
		C1816.7,1031.6,1822.7,1030.1,1828.7,1028.5z"/>
	<path class="st1" d="M1849.7,1030.9c23.4,5.4,46.9,10.8,70.3,16.3c0,16,0,32,0,48c-15.1-1.2-30.1-2.7-45.2-3.4
		c-10.9-0.5-21.8-0.1-34.2-0.1c0-21.3,0-41.1,0-61.5C1843,1030.3,1846.3,1030.6,1849.7,1030.9z"/>
	<path class="st1" d="M1633.6,1031.5c0,0.4,0,0.9,0,1.2c-4.8,7.2-9.6,14.4-15.4,23.1c-1-3.8-1.4-5.5-2-7.9
		c-9.9-0.5-19.9-0.9-29.9-1.4c5.3,25.1,22.2,42.5,38.4,60.9c2-1.2,4-2.4,7-4.3c-1,10.2-7.2,15.6-14.9,22.8c-2-6.7-3.7-12.2-5.3-17.6
		c-0.7,2.2-1.5,4.8-2.6,8c-1.7-14.1-2.1-20.5-16.2-23.7c4.3-6.5-1.8-10-3.2-14.9c-0.8,0.2-1.7,0.4-2.5,0.7c1,4,2,8,3,12.1
		c-1.4-2.7-3.6-5.2-4.2-8.1c-1.5-8-2-16.2-3.6-24.2c-0.4-2.3-3-4.1-5.2-6.9c0,32.6,0,63.2,0,93.5c12.5-0.8,23.7-1.3,34.8-2.4
		c2.7-0.3,5.2-2.4,9.2-4.4c1.1,0,4.2,0,7.3,0c0.1,0.6,0.1,1.3,0.2,1.9c-2.4,1-4.8,2.1-7.1,3.1c-0.5,7.3-1,14.5-1.5,22
		c-3.3,0-6.1,0-9,0c0.4-4.7,0.7-9.4,1-12.7c-14.4,2-27.9,3.9-41.7,5.9c2.2,11,4.6,23.1,6.8,34.6c4.1,0.8,7.6,1.5,12.2,2.4
		c0.5-0.7,2.1-2.5,4-5c1.1,2.2,2,3.9,3.2,6.1c1.5-1.5,2.7-2.8,5.1-5.3c1.3,2.9,2.4,5.2,3.5,7.5c-0.3,0.5-0.6,0.9-0.9,1.4
		c1.7,4.1,3.5,8.2,5.2,12.2c1-0.2,2-0.3,3-0.5c1.2-3,2.5-6,3.7-9.1c0.8,2.5,1.7,5,2.7,8.3c-76.8,16.4-153.3,28.5-233,36.6
		c1.2-8.1,2.5-15.1,3.2-22.2c0.4-4.4,0.1-9-0.2-13.5c-0.4-6.7-0.6-13.5-1.7-20.1c-0.7-4.4-2.9-8.5-4.3-12.7
		c-0.7-2.1-1.1-4.3-1.3-6.4c-1.4-13.3-2.9-26.7-4-40c-0.5-5.7-2.8-6.9-8.4-6c-4.3,0.8-8.9-0.5-13.4-0.8c-0.8,0-1.9,1.4-2.3,1.1
		c-3.2-1.6-6.3,4.6-10.3-1.1c-3.9-5.6-6.8-0.3-9.2,5.4c-61.3-7.7-123-15.5-184.7-23.2c47.5-9.2,93.5,5.8,141.5,6.7
		c0-18.8,0-37.5,0-58.2c-43.7-2.7-86.9-5.3-129.7-7.9c-2.9-16.5-1.9-39.6,1.7-42.4c-5.5-3.4-6.5-3-6.7,3.1
		c-0.2,6.2,0.5,12.5,0.3,18.7c-0.2,6.2-1.1,12.4-1.7,19.2c-13.6,0-27.1,0-41.5,0c0-12.2,0-23.7,0-35.5c12.8-1.8,26-3.6,39.1-5.5
		c-0.1-0.6-0.1-1.1-0.2-1.7c-12.6,1.6-25.2,3.2-37.4,4.7c-5.5-9.1,2.4-21.5-10.2-27.9c6.5-0.5,9-3,8-8.9c-0.4-2,1.3-4.4,2.1-6.6
		c1.8,1,3.6,2.2,5.5,3.1c1.5,0.8,3.1,2,4.6,1.9c12.7-0.8,25.2-1.4,38.1,1.4c8.9,1.9,18.8-0.7,28.2-1.2c4-0.2,8,0,12,0.5
		c-3,0.2-6.1,0.3-9.1,0.5c0,0.6,0,1.3,0.1,1.9c12.3-0.7,24.6-1.4,36.9-2.1c0,0.3,0.1,0.7,0.1,1c-4.8,0.3-9.6,0.6-15.7,1
		c17.9,3.4,34.5-1.5,51.2,0.9c-6.2,0-12.4,0-18.6,0c0,0.1,0,0.3,0,0.4c13.9,0,27.7,0,41.6,0c0.1-0.8,0.1-1.5,0.2-2.3
		c-2-0.4-4-1-6-1.1c-19.2-0.7-38.4-1-57.6-2.1c-35.8-2-71.5-4.5-107.3-6.6c-5.3-0.3-7-2.2-6.5-7.3c0.5-5.4,0.1-10.9,0.1-16.4
		c0.9,0,1.9,0,2.8,0c0,2.7,0,5.5,0,9.4c6.9,0,14.7,0.2,22.5,0c8.9-0.3,17.8-0.9,26.7-1.3c0.7,0,1.8,0.3,2,0.8
		c5.8,11.9,15.6,3.9,23.5,4.5c3.1,0.2,6.2-0.6,9.3-2.1c2.3-0.6,4.6-1.6,6.9-1.7c5.3-0.3,10.6-0.1,16.6-0.1c-0.1-0.6,0.1,1.8,0.5,1.9
		c4.6,0.1,9.2-0.4,13.8-0.3c5.2,0.1,10.4,0.5,15.7,0.7c-0.2-2.4-0.5-4.5-0.9-8.7c4.6,5.5,7.6,9.5,11.1,13.1c3.1,3.2,6.1,3.9,8.8-1
		c0.7-1.3,3.5-2.1,5.3-2c6,0.2,10.5-3.5,10.6-9.6c0.4-20.9,0.7-41.8,0.9-62.7c0.1-7.9,0.4-8.5,6-8.6c-1-2.6-3-5.4-3.1-8.4
		c-1.2-26.9-2.2-53.8-3.2-80.6c-0.2-6.5-0.3-13,0.1-19.5c0.5-7.9,2.8-15.8,2.4-23.6c-1-23.3-3.1-46.6-4.2-70
		c-0.5-9.6,0.6-19.2,0.6-28.9c0-5.2-0.8-10.4-1.2-15.5c-0.3-3.4-0.7-6.8-1-10.3c14.3-2.8,28.1-5.6,42-8.2c2.3-0.4,5,0,7.2,0.8
		c3.3,1.2,4.9,1.1,6.6-2.7c1.4-3.3,4.5-6.4,7.7-8.1c7.4-4,15.1-7.8,23.2-10.2c10.2-3.1,17-9.5,22.3-18.2c0.5-0.8,1-1.7,1-2.6
		c0.1-7.4,0-14.9,0-23c-6.8,0-14.9,0-24.6,0c0-16.7-0.2-33.5,0.1-50.3c0.4-26.6,1.1-53.3,2-79.9c0.1-3,2.9-5.9,3.4-8.4
		c0-9.6-0.1-19.1,0-28.7c0.2-16.5,0.4-33,1.1-49.4c0.2-4.2,2.5-8.2,3.8-12.4c0.8-2.5,2-5.1,1.9-7.6c-0.4-8.2,0.2-15.9,5.5-22.8
		c1.2-1.5,1.6-4.1,1.3-6.1c-2.4-17.6-5.5-35-7.3-52.6c-0.4-4.3,2.2-10.4,5.5-13.4c8.7-7.9,18.3-14.8,27.9-21.7c2.5-1.8,6-2.2,9-3.1
		c14.8-4.5,29.5-11.3,44.6-12.6c11.1-0.9,21.2-5.9,32.2-5.4c20,1,40.3-0.4,59.7,6.2c10.9,3.7,21.6,8.4,32.8,10.5
		c12.4,2.4,22.6,8.4,32.6,15.2c4.3,2.9,7.4,7.4,12.4,12.4c-3.6,0-4.9,0-6.5,0c0.5,4.1,1,8.2,1.3,10.4c3.6,3.4,6.4,5.7,8.8,8.5
		c0.2,0.3-2,2.7-3.3,4.5c5.6,4.7,3.2,11.1,2.1,17.7c-0.9,5.4-0.1,11-0.6,16.5c-0.5,5.4-1.8,10.7-2.4,16.1c-0.3,3.1,0.5,6.4,0.5,9.5
		c0,4.4,0.2,9.1-1,13.2c-0.4,1.4-4.9,2.2-7.6,2.1c-1.9,0-3.7-1.9-6-3.1c0.2,1.2,0.1,1.9,0.3,2c14.9,6.4,14.1,18.6,11.7,31.5
		c-0.4,1.9-0.4,3.8-0.7,6.4c-2.3-0.5-4.5-0.9-8.1-1.7c3.3,6.4,12.8,9,7.7,17.9c-0.9-0.1-2.6-0.3-4.9-0.6c2,2.1,4.7,3.6,4.8,5.2
		c0.3,5-0.4,10-0.8,15.1c-0.1,0.9-0.7,1.8-0.6,2.6c0.2,2.9,1,5.8,0.8,8.6c-1.5,15-3.2,30.1-5,46.2c-1.8-2.1-3.2-3.8-4.6-5.5
		c-2.8,5.8-1.3,4.9,1.5,9.7c2.8,4.6,3,11.3,2.9,17.1c0,6.9-1.4,13.8-2.3,20.7c-0.7,5.2-1.8,10.4-2.2,15.7c-0.2,2.3,1,4.7,1.9,8
		c-2.4-0.7-3.9-1.1-7-2c9.3,8.6,5.9,18.4,6.4,28.7c-18.5-5.3-36.2-10.4-53.9-15.4c-0.4,0.9-0.9,1.8-1.3,2.7
		c3.4,2.8,6.9,5.6,10.2,8.3c-0.3,0.3-1.6,1.7-3,3.2c9.6,1.7,18.5,3.4,28,5.1c-0.6-1.7-1.4-4.2-2.2-6.5c6.7,1.3,13.5,2.6,18.5,3.6
		c2.1,5.6,3.7,9.7,5.3,13.8c-0.4,0.7-0.9,1.3-1.3,2c-3.1-1.8-6.1-4.1-9.5-5.3c-6-2.1-12.6-5.6-18.4-4.9c-8.3,1.1-15.3,0.3-22.4-3.5
		c-0.5-0.3-1.4,0.2-3.4,0.6c4.2,2.9,7.6,5.3,11,7.7c0,0.8-0.1,1.7-0.1,2.5c-7.8-7.6-14-2.4-20.3,0.8c-2.2,1.1-5.4,3.2-5.4,5
		c-0.1,2.1,3.4,4.1,4,6.5c0.8,3.3,0.2,6.9,0.2,10.8c2.8,2,6.5,4.7,11.1,8c-5.5,3.1-7.5,4.2-10.3,5.8c1.7,1,2.8,1.7,3.9,2.3
		c-3.1,3.8-0.2,8.3-0.4,12.2c-0.4,7.4-2.8,9.1-9.2,8.6c-1.4-0.1-2.9,0.7-4.2,1.4c-8.1,4.1-11.2,3.4-17.8-3.2c-2.7-2.7-5.9-5-8.4-9.2
		c7.5,3.6,14.9,7.3,23.2,11.3c0.5-7.8,1.1-13.7,0.9-19.6c0-1.3-2.8-2.5-3.9-4c-1.4-1.9-6.2-3.5-1.1-6.6c0.4-0.2,0.3-1.7,0-2.5
		c-2.1-6.3-4.6-12.5-6.4-18.9c-2.1-7.6-4.7-8.9-12.1-6.6c-9.1,2.8-18.5,4.7-27.9,6.3c11.3-8,25-7,37.5-10.2c-0.3-7.2-3.5-9.2-11-8
		c-7.7,1.2-16.3-2.1-23.6,0c-11.3,3.2-22.3,8.2-32.4,14.3c-13.9,8.2-26.6,18.4-40.2,27.1c-4,2.6-9.3,3.1-14.3,4.7
		c0.5,0.4,0.9,0.8,1.1,0.7c15-1.3,15-1.3,16.6,14.5c0.2,2.1,1.1,4.2,3.4,6.8c0.9-3.4,3.1-7.2,2.4-10.2c-2.6-11,5.8-17.2,11.1-23.5
		c3.1-3.7,12-2.7,18.4-3.3c4.9-0.5,9.8-0.1,16.1-0.1c0,10.4,0,20.6,0,30.8c0.7,0,1.4-0.1,2.2-0.1c0-10.4,0-20.9,0-31.2
		c2.3-0.3,4.5-0.1,6.4-0.8c7.7-2.9,8.6-2.5,9.7,5.8c0.3,2.2,0.5,4.4,0.8,6.6c1.7,0.2,3.5,0.3,6.9,0.7c-2.8,2.4-4.5,3.9-6.7,5.8
		c0.9,2.1,2,4.5,3.1,6.9c-0.7,0-1.4-0.1-2.1-0.1c-0.1,4.5-1.1,9.2-0.1,13.4c2.3,9.5,12.3,3.4,17.7,8.3c-1.2,2.8-2.7,6.1-4.3,9.6
		c-8.5-0.4-17.1-0.8-25.7-1.2c0,0.2-0.1,0.4-0.1,0.7c3.5,0.8,7.1,1.5,10.9,2.3c0.3,3.9,0.7,8,1.2,13.2c5.2-1.5,9.9-2.8,14.6-4.1
		c0.1,0.5,0.3,1,0.4,1.6c-3.9,2.1-7.8,4.2-11.8,6.2c0.2,0.6,0.5,1.2,0.7,1.7c-1.7-0.7-3.4-1.5-5.7-2.5c0,7.9,0,15.1,0,23.1
		c3.7,0,6.9-0.8,9.4,0.2c3.5,1.4,9.4-3,10.8,5c0.6,3.8,21.8,4.8,24.7,1.2c1.6-2,2-5.4,1.7-8c-0.1-1.3-2.8-2.5-4.5-3.5
		c-7.3-4.2-14.7-8.2-22-12.3c0.4-0.8,0.9-1.6,1.3-2.5c1.5,0.7,2.9,1.5,4.4,2c5.8,2,11.5,4.1,17.4,5.7c0.9,0.2,2.4-2.5,3.9-3
		c2.5-0.7,5.3-0.7,7.3-0.9c1.4,3.8,2.5,7,3.5,9.8c0.3,0-0.6,0-3-0.2c3.1,4.1,6,7.2,7.9,10.9c0.8,1.5,0.1,4.8-1.2,6
		c-5.8,5.5-6.1,8-0.4,14.4c-1.6,0.8-3,1.4-2.6,1.3c20.6,2.3,43,4.7,65.3,7.2c0,0,0.1-0.1,0.1-0.1c-2.9,0.6-5.8,1.8-8.6,1.6
		c-16.1-1.2-32.1-2.7-48.2-4c-2.1-0.2-4.3,0.4-8.1,0.9c3,2.3,4.9,3.8,5.1,4c0,3.6,0,6,0,8.3c0,0-0.1,0-0.1,0c-0.8,3.6-0.9,7-6.2,7.8
		c-5.1,0.7-8-1.5-9.3-5.3c-2.3-6.9-3.7-14.2-5.6-21.3c-0.5-1.9-1.1-3.8-1.9-6.7c0.2-0.6,1-2.6,1-2.8c-8.8-2.7-16.8-5.2-25.4-7.8
		c-0.2,0.8-0.7,2.5-1.4,4.8c3.1,0,5.4,0,7.8,0c0,0.5,0,1,0,1.5c-9.8,0-19.6,0-29.4,0c7.7,1.2,5.6,7.4,6.1,12
		c0.4,3.9-2.1,8.8,3.6,10.3c5.6,1.5,11.7,3.2,16-5.3c3.7,8.4,5.6,17.1,15.4,19.3c-8.3-0.7-16.7-1.4-24.5-2c-0.9,7-1.6,13.2-2.6,20.9
		c2.8,0.2,6.5,0.4,11.2,0.7c-1.3,2.5-2.8,5.2-4.7,8.9c3.6,0,7.9,0,12.1,0c-2.5,1.6-4.9,3.2-8.6,5.7c6.4,1.1,10.9,1.8,15.3,2.6
		c-0.9-2.6,8.2-1.4,2.2-5.8c2.2,0.8,4.4,1.7,7.7,3c3.9-10.3,7.5-19.8,11.5-30.4c1.6,0.1,4.9,0.3,8.8,0.5c0.5,4.8,0.9,9.2,1.4,13.7
		c0.4,0.1,0.8,0.1,1.2,0.2c0.5-2.4,0.9-4.8,1.5-7.6c10.4-3.7,4.6,12,13.2,10.4c-0.2,0.7-0.3,1.3-0.5,2c-4.9,0.4-9.9,0.7-14.8,1.1
		c-9,5.5,1.5,12.7,0.1,20.1c2.4,0.5,4.9,1,7.8,1.5c-2,5.8-4.1,10.9-5.4,16.2c-1,4.2-1.8,7.5-7.1,7.4c-0.8,0-2.4,2.1-2.2,2.6
		c2.2,5.7-0.1,11-0.6,16.5c-0.2,2.2,2.5,4.7,4.3,7.8c-1.8,0.2-3,0.3-6.1,0.7c2.5,7.1,5,14,7.4,20.9c1.4,3.8,3.9,7.9-2.3,10.1
		c-0.6,0.2-1.2,1.7-1.1,2.5c0.6,9.3,1.3,18.6,2,28.1c1.5-0.2,3.1-0.5,4.9-0.8c0,1.1,0.3,2.2,0,2.4c-10.3,5.5-4.3,14.8-4.9,22.3
		c-0.8,9.7-0.4,19.4-0.4,29.1c0,5.2,0,10.4,0,15.9c-5.5-2-5.5-2-8.9-14.2c-19.8,0-39.3,0-58.8,0c-0.2,9.2,3.1,9.8,10,9.3
		c15.7-1.1,31.6-0.3,47.5,0.7c-5.3,8.2-12.8,5.8-19.9,5.4c-6.5-0.4-13.1-0.1-19.6-0.1c-0.1,0.6-0.2,1.3-0.4,1.9
		c6.2,2.9,12.3,5.8,17.9,8.4c-9.1,0-19.3,0-29.5,0c0,0-0.2-0.2-0.2-0.2c-8.5-1.9-17-3.5-25.1,1.5c0,0,0.1-0.3,0.1-0.3
		c-1.1-3.4-2.5-6.8-3.1-10.3c-1.4-7.9-2.5-15.9-4.4-23.6c0,10.4,0,20.8,0,32.2c-1.9,0.8-5.3,2.3-8.7,3.8c0.1,0.6,0.3,1.2,0.4,1.8
		c2.5,0.2,5,0.4,8,0.7c0.9,3.3,1.8,6.7,3.1,11.7c1.6-3.2,2.6-5.1,4.3-8.6c0.2,6.3-2,12.9,6.7,13c-2.9,0.3-5.7,0.5-8.8,0.8
		c-0.6,8,5.6,7.8,10.2,9.4c-3.5,1.7-5.8,12-3,12.7c4.3,1,9.2,0,13.8-0.2c-0.4-1.2-0.9-2.5-1.3-3.7c5.1,3.8,9.1,2.5,12.8-3.8
		c-3.7-2-7.3-4-12-6.5c4.2-2.7,7.4-6.3,11.9-0.3c1.2,1.5,2.7,2.8,4,4.2c0.2,0.2,0.3,0.3,0.4,0.4c4.4,1.3,8.8,2.6,13.5,4
		c2-0.7,5.5-3,8.9-2.8c7.6,0.5,11.7-3,13.3-9.8c1.5-6.2,4.1-12.7-3.4-19.1c3.9-0.7,7.7-1.4,13.1-2.3c-2.6,8.9-6.3,16.8,3.5,24.2
		c-4.1-0.9-6-1.2-9.9-2.1c0.6,7.2,1.1,13.6,1.7,20.1c0,0.2,0.5,0.4,0.5,0.5c-0.4,2.4-2.1,5.8-1.1,6.9c2,2.2,5.4,3.2,8.3,4.6
		c-0.3,0.6-0.5,1.2-0.8,1.9c-2.7-0.6-5.4-1.3-8-1.9c-0.2,0.4-0.4,0.8-0.7,1.3c2.4,1.3,4.7,2.9,7.2,3.9c2.5,1,5.2,1.5,9.2,2.5
		c-2.6,0.5-3.8,0.8-5.2,1.1c6.7,5.2,29.6,6.1,34.4,2.4c1.6,1.1,3,2.8,4,2.5c10.2-2.1,20.3-4.3,30.3-7c3.2-0.8,5.7-2,6.6,2.4
		c-2.1,0-4.3-0.4-6.3,0c-11.1,2.5-22,6.6-33.1,7.4c-12.8,0.9-25.8-1.2-38.8-1.9c-1.2-0.1-2.5,0.6-5.2,1.2c5.7,3.4,9.9,6.5,14.5,8.5
		c14.9,6.3,30.4,4.2,45.7,2.1c4.9-0.7,9.3-4.4,14-6.6C1629.6,1032.3,1631.7,1032,1633.6,1031.5z M1577.7,377.7l0-0.2
		c1.8,2.9,3.1,7,7.8,3.7c-1.7-2-3.4-4.1-5.1-6.1c0,0-0.1,0-0.1,0C1579.5,375.9,1578.6,376.8,1577.7,377.7z M1520.2,1080.4l-0.3-0.1
		c-1.2,3-2.5,6-3.7,9.1c-1.1-0.3-2.1-0.6-3.2-0.8c0,0,0-0.2,0-0.2c1.3,0.3,2.5,0.6,3.8,0.8c0.5,3.2,1,6.4,1.3,8.9
		c-2.9,1.4-6,2.9-8.9,4.3c4.3,2.6,7.4,4.5,10.5,6.4l0.2-0.1c-2,0.7-3.9,1.4-5.9,2.1c0.9,0.9,1.8,1.8,2.7,2.7
		c0.3-0.1,0.6-0.2,0.9-0.2c1.9,0.6,3.8,1.2,5.7,1.8l-0.3,0c0.8,0.2,1.6,0.3,2.4,0.5c1.8,9.7,8.6,3.8,15.2,5.9
		c-1.9-3.6-2.7-5.1-3.6-6.7c-0.2-1.2-0.7-3.4-0.5-3.5c6.5-1.9,2.3-7.7,5-11.3c-3.2-0.8-5.5-1.3-9.3-2.2c3.8-3.4,6.4-5.9,9.3-8.4
		c-2.9-8.4-3.1-10.4-1.5-19.1c-1.8-1.1-3.7-2.3-5.6-3.4c0.2-0.4,0.3-0.9,0.5-1.3c1.8,0,3.5,0,5.8,0c-1.2-1.4-2.7-2.3-2.6-3.1
		c0.6-8-7.2-13.9-4.8-23.1c0.9-3.4-5-9.8-9.2-13.2c-2.8-2.3-8-2-12.1-2.6c-5-0.8-10.1-1.3-15.2-2c0.1-0.7,0.2-1.3,0.2-2c2,0,4,0,6,0
		c0-0.4,0.1-0.8,0.1-1.2c-10.2-1.8-20.5-3.6-30.7-5.4c6.4,2.7,8.3,8.1,10.3,13.9c0.5,1.4,4.1,1.7,6.2,2.5c-2.5-3.2-4.6-6-7.5-9.8
		c5.9,1.1,10.1,1.8,14.9,2.7c-1.4,1.9-3.4,3.6-3.1,4.2c4.4,9.2-2.7,5.2-6.5,5.4c0.5,8.8,6.2,1,7.2,1.8c4.6,5.4,8,9.5,11.4,13.6
		c-1.1,0.5-2.6,1.2-5.3,2.5c3.5,3,6.7,5.1,9.1,8c1,1.2,0.8,5.6,0.3,5.7c-5.4,1.6-4.2,5-3,9.4c3.1-1.7,5.8-3.2,9-5
		c0.5,3,0.9,5.3,1.4,7.6c0,0-0.2-0.3-0.2-0.3c-0.5,1.6-1,3.2-1.5,4.9c0,0-0.1,0-0.1,0l-0.2,0.2c0.9,0.6,1.7,1.3,2.6,1.9
		C1518.3,1081.5,1519.3,1081,1520.2,1080.4z M1611.5,241c-1.6-0.7-3.2-1.4-4.7-2.1l0.2-0.2c0.9,1.6,1.8,3.2,2.7,4.8
		c0.6-0.9,1.2-1.8,1.8-2.7C1611.5,240.8,1611.5,241,1611.5,241z M1532.5,782.3c3.8,8.9,12.7,8.1,21.2,12.6c-1.5-4.2-2.2-6.2-2.9-8.3
		c5.9-8.5,3.7-23.7-4.4-29.6c-3.7,4.3-3.3,3.3-8.5,1.6c-6.4-2.1-13.7-3.9-20.1-2.7c-3.1,0.6-6.3,4.8-11.1,4.3
		c-6.1-0.7-11.8-0.5-12.3,7.2c3.9,0.7,7.7,1.9,11.6,1.9c3.8,0.1,7.7-1,12.8-1.8c-5.1,3.4-9.1,6-13.3,8.8c3.8,3.8,11.2-5.5,12.6,4.1
		c-0.4,4.3,1.8,5.4,5.5,4.1c2.6-0.9,5.1-2,7.6-3C1531.8,781.6,1532.2,781.9,1532.5,782.3z M1366.4,1105.2c-3.8-2.4-7.6-4.9-11.8-7.6
		c1.1,3.9,1.8,6.5,2.9,10.4c2.7-1,5.9-2.2,9-3.3c-0.7,9.3,7.5-2.9,8.1,3.3c-0.2-2.7-0.4-5.4-0.6-8.2
		C1369,1101.8,1366.4,1103.6,1366.4,1105.2z M1621.4,216.8l-0.2-0.4c1,2.3,2,4.6,3,6.9c0.5-0.3,0.9-0.5,1.4-0.8c0-4.9,0-9.8,0-15.6
		c-1.8-0.9-4.2-2.2-6.6-3.3c-3.5-0.6-6.9-1.2-10.4-1.8c0.3-7.5-6.9-4.9-9.9-8.7c1.4,4.9,2.6,8.8,3.5,12.7c1.8,7.6,1.7,7.6,5.7,7.7
		c-1.9-2.3-5.4-5,1-5.5c0.2,0,0.3-1.7,0.4-2.6c1.6,2.9,3.2,5.9,4.6,8.4c2.1-4,3.8-7.2,5.5-10.4c1.1,1.9,2.2,3.9,2.6,4.6
		C1621.6,211.6,1621.5,214.2,1621.4,216.8z M1358.9,952.4c6.7,1,13.5,2.1,20.2,3.1c0.1-0.8,0.1-1.5,0.2-2.3
		c-6.5-4.5-13.5-2.2-20.4-0.4c-3.7-2.4-7.7-4.5-11-7.3c-4.8-4.1-7.2-1.8-10.4,3.3C1345.1,950.8,1351,956.5,1358.9,952.4z
		 M1524.6,384.5c-3.1,1.8-6.3,3.5-9.3,5.2c-0.4,10.1,2.2,13.6,7,12.4c2-4.4,3.2-7.7,5-10.8c2.1-3.8,2.7-6.5-2.9-7l0.4-0.1
		C1524.8,384.3,1524.6,384.5,1524.6,384.5z M1477.7,1086.1c-1.7,7.5,1.1,10,10.2,8.1c-2.4-4.1-2.5-10.1-9.7-8.7
		c2.1-8.1-4.9-5.2-8.2-6.6c-1.4-0.6-3.3-0.1-5.4-0.1c0.9-1.2,1.4-2,3.2-4.4c-4.8,1.6-7.8,2.6-10.9,3.6
		C1459.7,1084.1,1469,1087.4,1477.7,1086.1z M1606.7,235.1c3.8-0.6,7.6-1.2,11.3-1.8c-0.6-2.9-1-4.9-1.4-7.3c4,1.1,7.3,2,10.6,3
		c0.1-0.4,0.2-0.8,0.3-1.2c-7.4-3.5-14.8-7-22.2-10.5c-0.7,0.6-1.5,1.2-2.2,1.9c1.7,3.4,3.5,6.8,5.3,10.3c-6.6-0.8-3,3-1.4,6.1
		L1606.7,235.1z M1610.6,258.3c0.7-0.8,1.3-1.6,2-2.4c-0.4-0.2-0.8-0.3-1.2-0.5c-0.1,1-0.2,1.9-0.4,2.9c0,2.7,0,5.3,0,8
		c-1.9,2.1-3.6,4.8-4.1,7.7c-0.6,3-1,6.6,0.3,9.1c1.5,3.2,4.8,5.5,7.3,8.1c0,0-0.2,0.2-0.2,0.2c1.4-1.1,2.8-2.1,4.6-3.5
		c-7.4-3.9-7.2-12.8,0-20.9C1616.1,264.2,1613.4,261.2,1610.6,258.3z M1535.1,333c0-2.4,0-4.9,0-7.3c1.8-1.2,3.8-2.2,5.3-3.7
		c2.4-2.4,6-5.1,6.1-7.8c0.1-3.5-1.8-8-4.3-10.6c-4.6-4.6-11.5-4.1-15.6-0.4c-2.7,2.4-1.9,8.7-2.6,13.3c-3.2,1-6.4,2-9.7,3
		c-1.6,0-3.2,0-3.8,0c-0.8,4.5-1.6,9-2.4,13.9c1.6,0.8,4.2,2.9,7.3,3.7c8,2.1,9.3,5.6,3.6,12.2c2.2,0,4.2,0,6.3,0
		c-2.2-9.6-1.6-10.6,7.4-13C1534.1,335.9,1537.9,336.8,1535.1,333z M1588.5,328.6c-0.7,2.4-1.5,4.7-2.3,7.6
		c11.3-1.9,11.2-1.9,11.2-12.7c0-4.8,0.4-9.7,0.6-14.5c9.4,0.2,9.4,0.2,9.7-3.6c-3.2,0-6.4,0-11.5,0c2.8-2.7,4.7-4.4,7-6.6
		c-2.9,0-5.5,0-7.5,0c-0.6-3.4-1.2-6.2-1.5-8.1c-3.5,0.8-6.7,1.5-9.2,2c-6.1-2.4-12-4.7-17.9-6.9c-0.4,1-0.8,1.9-1.2,2.9
		c7.9,0.8,12.2,8.9,20.7,8.7c1.3,0,2.8,2.3,3.8,3.8c1.1,1.8,1.8,3.8,2.5,5.8c0.5,1.5,1.4,4.3,1,4.5c-6,3.2-1.2,8.7-2.9,12.7
		c-0.6-1.9-1.2-3.9-1.9-5.8c-0.6,0.1-1.2,0.1-1.8,0.2c-0.3,2.7-0.7,5.3-1.2,9c-4.2-0.6-8.5-1.1-12.7-1.7c0,0.7-0.1,1.4-0.1,2.1
		C1578.5,328.3,1583.5,328.4,1588.5,328.6z M1594.2,380.8c-0.5,4.1-0.9,8.2-1.5,13.3c0.5,1,1.8,3.4,3.4,6.6c-2.7-0.2-4-0.3-3.6-0.3
		c-2.2,5.4-4.1,9.9-6,14.4c-0.9-0.1-1.8-0.2-2.6-0.2c-3-4.3-6.1-8.7-9.1-13c-0.7,0.4-1.5,0.8-2.2,1.2c0,9.7-0.2,19.5,0.2,29.2
		c0.1,2,2.5,5.5,3.8,5.6c4.9,0,6.7,2.8,8.9,6.3c1.3,2.1,4,3.2,6.1,4.8c-3.1,4-6.2,8.1-9.4,12.2c3.8,2.9,7,5.3,10.1,7.7
		c0.7-0.6,1.3-1.2,2-1.8c-1.4-4.3-2.7-8.6-4.1-13.2c1.9,0,4.1,0,6.3,0c0.3-0.6,0.5-1.2,0.8-1.8c-1.7-1-3.4-2.1-5.2-3.1
		c3.7-1.3,7.4-3,11.2-3.9c4.3-1.1,5.8-3.2,5.6-5.6c-1.4,1.4-3.4,3-5.3,2.8c-1.2-0.1-2.2-2.8-3.1-4.4c-1-1.8-1.7-3.7-2.6-5.7
		c1.7-0.5,3.7-1,5.7-1.6c-1.8,1.6-3.6,3.1-5.4,4.7c-1.1-4.1-2.2-8.2-3.3-12.2c0.6-0.1,1.2-0.2,1.8-0.4c1-8,1.9-16,2.9-24
		c0.8-0.7,1.6-1.4,2.3-2.1c1.4,3.2,2.8,6.3,4.2,9.5c0.8-0.7,1.5-1.4,2.3-2.1c-2.5-5.4-4.9-10.9-7.4-16.3c-0.5,0.2-1,0.4-1.5,0.6
		c0.4-2.5,0.8-5.1,1.2-8.1c-2.4,0.5-4.6,0.9-6.7,1.4c4-10.2,0.1-20.5,1.7-30.6c-6.5-0.8-11.5-1.4-16.4-1.9c1.2,2.9,2.9,5.2,5.1,6
		c6.5,2.1,6.6,7.8,7.4,12.7c0.4,2.8-0.4,6-1.5,8.7C1588.7,380.3,1591.1,380.8,1594.2,380.8z M1503.6,798.4c-0.8,5.1,0.5,8.5,7.3,8.1
		c-6.1,3.2-11.2,6.5-10.5,13c3,1,7.4,1.7,7.5,2.7c0.2,2.9-0.3,7-2.2,8.8c-6.4,6.2-4.4,10.4,1.9,14.1c-2.6,2.5-5.2,4.9-7.1,6.8
		c18.1,0,36.3,0,55.2,0c0-18.6,0.1-35.7-0.1-52.8c0-1.3-1.4-3.4-2.7-3.8c-4.4-1.5-9.1-3.4-13.6-3.4c-17.9-0.2-35.8,0.2-53.8,0.5
		c-2.1,0-4.1,0.7-6.2,1.1c0,0.5,0.1,1,0.1,1.5c5.3,0.3,10.6,0.6,15.2,0.8C1495.5,802,1499.8,797.8,1503.6,798.4z M1571.4,1060.5
		c-3.9-1.2-8.4-2.9-13-3.8c-1.2-0.2-4,2.1-4.1,3.5c-0.8,6.7-1,13.5-1.2,20.3c-0.6,15.6-1.8,31.2-1.4,46.8
		c0.5,21.3,1.6,21.7,21.9,19.3c0.4,0,0.7-0.6,0.9-0.8C1573.5,1117,1572.4,1088.4,1571.4,1060.5z M1553.9,858.4
		c-15.5,1-30.2,1.8-45,2.8c-2.7,0.2-5.5,0.7-7.9,1.9c-4.4,2.1-10.9,3.6-5,10.8c0.7,0.9,0.4,3-0.1,4.2c-2.4,5.8,1.3,7.6,5.6,7.6
		c18.4,0.3,36.8,0.1,55.7,0.1C1556.2,877.3,1555,867.6,1553.9,858.4z M1554.5,910.2c0,1.1,0,2.2,0,3.3c-18.5,0-37,0-55.5,0
		c-0.3,0.7-0.7,1.5-1,2.2c3.1,2.7,6.1,7.7,9.3,7.8c16.4,0.8,32.8,0.4,50.1,0.4c-0.9-10.1-1.8-19.4-2.6-28.5
		c-10.9,0.8-20.7,1.3-30.6,2.4c-7.1,0.8-14.2,2-21.1,3.7c-1.7,0.4-2.6,3.5-3.9,5.4c1.8,1,3.5,2.7,5.3,2.9c4.9,0.5,9.9,0.4,14.8,0.5
		C1530.9,910.2,1542.7,910.2,1554.5,910.2z M1433.1,462.4c7.5-8.5-2.7-33.3-18.7-42.9c-2.7,9.6-5.3,18.6-7.9,27.6
		c1.8,0.5,3.5,1,5.3,1.6c-1.9,2.9-3.4,5.1-5.7,8.5c6.4-0.7,11-1.6,15.6-1.6c1.6,0,3.2,2,4.7,3.2c2.7,2.3,5.3,4.6,8,6.8
		c0.1,0.1,1.4-1.5,2.2-2.2C1435.7,463.1,1434.7,462.8,1433.1,462.4z M1519,258.6c10.3-4.4,19.2,1.2,28.5,1.3
		c8.8,0.1,17.7,2.3,26.5,3.7c2.4,0.4,4.8,1.1,7,2.2c4.8,2.5,9.3,5.3,14.5,8.3c0.9-7.6-0.9-11.5-5-11.9c-9.4-1-18.8-1.9-28.1-2.9
		c-12.3-1.4-24.6-2.9-36.8-4.5c-6.1-0.8-12.1-1.9-18.8-3c-3,0.8-7.3,2-11.6,3.2c3.9,2,8.3,2.8,12.4,2.2c4.5-0.6,7.7-1,8,4.9
		c0.1,1.7,1,3.4,1.8,5.5c0.3-2.9,0.5-5.1,0.9-7.3C1518.4,259.3,1519,258.4,1519,258.6z M1543.4,1136.8c-0.2-0.9-0.4-1.8-0.6-2.7
		c-17.1,1.6-34.2,3.2-51.3,4.8c0,0.7-0.1,1.4-0.1,2.1c7.9,0.3,15.8,0.4,23.7,1c2.9,0.2,5.8,1.6,8.6,2.4c1.9,0.5,3.7,1.4,5.6,1.5
		c0.5,0,1.2-2.1,1.9-3.6c1.9,1.5,3.8,2.9,6,4.6C1539.6,1143.4,1541.5,1140.1,1543.4,1136.8z M1449.3,489c0.3,0.3,2,2.1,4.3,4.4
		c3-15-11-16.7-15.4-24.7c-3.5,4.2-6.8,8-9.9,11.9c-0.5,0.7-0.9,2-0.6,2.7c0.3,0.7,1.5,1.1,2.4,1.3c2.8,0.7,5.7,1.1,8.6,1.7
		C1441.8,487,1444.8,487.9,1449.3,489z M1367.8,1009.7c0-1.1,0-2.1,0-3.2c-2,0-4.1,0-6.1,0c-7.6-0.2-15.4,0.5-22.7-0.9
		c-3.1-0.6-4.9-2.6-6.9,1.2c-0.4,0.8-2,1.2-3.1,1.5c-4.1,0.9-8.3,1.6-12.5,2.4c0.2,1.1,0.3,2.2,0.5,3.4
		C1333.9,1012.6,1350.9,1011.1,1367.8,1009.7z M1326,742.3c8.2,5,16.5,4.5,25.1,2.1c2.6-0.7,5.6-0.2,8.4,0.1
		c1.6,0.2,3.1,1.2,4.7,1.8c0.3-1.8,0.6-3.5,1.1-6.8C1351.5,742.7,1338.6,735.5,1326,742.3z M1511,520.4c-0.6,0.9-1.1,1.7-1.7,2.6
		c2.3,2.1,4.5,4.2,6.7,6.3c0.1-0.1-0.6,0.7-2.1,2.6c6.8-0.5,12.1-0.9,19.7-1.4c-3.6-4.5-5.3-8.9-8.1-9.7
		C1521,519.4,1515.9,520.4,1511,520.4z M1547.4,1197.9c0.3-0.9,0.5-1.8,0.8-2.6c-14.6-6.1-29.3-12.3-43.9-18.4
		c-0.4,1.1-0.9,2.2-1.3,3.4C1517.7,1186.2,1532.6,1192,1547.4,1197.9z M1372.1,870.6c-3.4-3.1-6-6.5-11.4-3.7
		c-2.1,1.1-5.2,0.3-7.9,0.3c-6.1,0-12.3,0-18.4,0c0,1.1,0.1,2.2,0.1,3.3C1346.8,870.6,1359.2,870.6,1372.1,870.6z M1467.9,902.8
		c0.7,0,1.4-0.1,2.1-0.1c-0.9-19.9-1.9-39.7-2.8-59.6c-0.7,0-1.4,0.1-2.2,0.1C1466,863.1,1467,882.9,1467.9,902.8z M1477.2,257
		c0-0.9-0.1-1.9-0.1-2.8c-7.7,3.9-14,4.2-15.9-6.3c-0.7,0.5-1.4,1-2.1,1.5c1.4,6.5,2.8,13.1,4.2,19.6c0.6-0.1,1.3-0.2,1.9-0.3
		c0-2.9,0-5.8,0-7.7C1469.8,259.6,1473.5,258.3,1477.2,257z M1343,970.2c-2.8,3.8-5.1,7.1-7.7,10.6c0.6,1.1,1.4,2.8,2.3,4.5
		C1349.8,976.5,1350.4,974.3,1343,970.2z M1292.6,1008.6c0.4-0.6,0.7-1.1,1.1-1.7c-2-1.2-3.8-2.7-6-3.5c-2.7-1-5.6-1.4-8.3-2
		c-2-0.5-4-1-6-1.5c-0.5,2.2-1,4.4-1.2,5.1C1279.5,1006.3,1286.1,1007.5,1292.6,1008.6z M1563.1,353.7c0.1-0.8,0.1-1.6,0.2-2.4
		c-9.4-1.2-18.9-2.3-28.3-3.5c-0.1,1.1-0.2,2.3-0.3,3.4C1544.2,352.1,1553.7,352.9,1563.1,353.7z M1234.5,956.6
		c-10.8-2.1-12.5-1.6-16,4.5c2.9-0.2,5.5-0.4,8.6-0.6c-0.1,1.5-0.2,2.7-0.3,3.6c3.5,0,6.6,0,10.3,0c-2.7-1.3-4.8-2.3-8-3.8
		C1231.6,958.5,1232.9,957.7,1234.5,956.6z M1588.6,484.2c3.7-4.4,5.3-8.7,2.4-13.4c-0.4-0.7-3.9-0.6-4.4,0.2
		C1583.6,475.4,1584.1,479.7,1588.6,484.2z M1477.2,800c1.7,4.3,3.3,9.1,5.5,13.5c1.2,2.5,3.6,4.4,6.7,8.1
		C1487.3,807,1482.9,800.7,1477.2,800z M1473.3,390.9c6.3,2.3,10.7,3.9,15.6,5.8c0.4-0.7,1.3-2.3,2.5-4.4
		C1486,389.9,1481.5,385.8,1473.3,390.9z M1524.1,999c-0.1,1-0.2,2-0.3,3.1c4.9,0,9.8,0,15.7,0C1534.8,992,1528.7,1001.2,1524.1,999
		z M1227.6,1031.4c0.2-0.7,0.3-1.3,0.5-2c-10.5-3.2-20.9-6.3-31.4-9.5c-0.2,0.7-0.4,1.3-0.6,2
		C1206.7,1025.1,1217.2,1028.3,1227.6,1031.4z M1510.8,371.2c0.4,7.7,0.9,15.5,1.3,23.2c2.8-7.6-2.4-17,7.2-22.8
		C1516.1,371.5,1513,371.3,1510.8,371.2z M1288.6,1043.4c0-0.6,0.1-1.3,0.1-1.9c-11.1-1.8-22.2-3.6-33.3-5.4
		c-0.1,0.5-0.2,1.1-0.2,1.6C1266.3,1039.6,1277.5,1041.5,1288.6,1043.4z M1537.3,292.7c-0.9-14.4,9-2.8,12.4-6.5
		c-1.4-5.7-4.1-6.1-15.5-2.2C1535,286.5,1535.9,288.9,1537.3,292.7z M1491.7,254.1c-3.7-0.5-6.7-0.8-9.7-1.2
		c-0.9,1.4-1.7,2.8-2.6,4.3c10.6-4.7,8.9,1.7,9.5,5.8c0.4,3.5,0.6,7,0.8,10.5c0.4,0,0.7-0.1,1.1-0.1
		C1491.1,267.4,1491.3,261.5,1491.7,254.1z M1489.5,929c0.5,0.2,1,0.5,1.5,0.7c0.5-3.7,1.3-7.4,1.3-11.1c0-2.2-1.2-4.4-1.9-6.6
		c-0.8,0.2-1.6,0.4-2.4,0.7C1488.5,918.1,1489,923.5,1489.5,929z M1485.1,821.4c1.1,7.2,2,13.2,2.9,19.1c0.4,0,0.8,0,1.2,0
		c0.6-5.6,1.1-11.1,1.7-16.9C1489.9,823.2,1488,822.5,1485.1,821.4z M1604.2,331.9c0.5,3,0.3,6.1,1.2,6.4c3.9,1.5,8.1,2.2,12.1,3.1
		c0.2-0.7,0.3-1.3,0.5-2C1613.8,337.2,1609.7,334.9,1604.2,331.9z M1614.2,431.4c-0.5-0.1-1.1-0.2-1.6-0.2c1.5,2.2,3.1,4.5,4.6,6.7
		c0.4-0.2,0.9-0.3,1.3-0.5c-0.3-5.4-0.6-10.9-0.9-16.3c-0.5,0.1-0.9,0.2-1.4,0.3C1615.6,424.8,1614.9,428.1,1614.2,431.4z
		 M1494.8,346.9c1-0.2,2-0.3,3-0.5c-1.2-4-1.3-8.9-3.8-11.7c-2.2-2.5-7.1-2.7-10.7-3.9c-0.3,0.8-0.6,1.6-0.9,2.3
		C1489.2,335.1,1498.7,334.7,1494.8,346.9z M1539.4,407.4c-0.2,0-0.7,0.1-0.7,0.1c0,0.4,0.1,0.8,0.1,1.2c0.2,0,0.7,0,0.7-0.1
		C1539.5,408.2,1539.4,407.8,1539.4,407.4z"/>
	<path class="st1" d="M469.3,741c-1.7,3.6-3.4,7.2-5.2,11c8.7,0,16.7,0,26.1,0c1.6-8.1,3-16.2,4.9-24.2c0.4-1.9,1.9-4.2,3.5-4.9
		c1.2-0.5,3.7,0.9,5,2.1c1.3,1.2,1.7,3.3,2.2,4.3c-2.9,2.5-5.8,5-9.4,8c6.6,2.5,8.7,5.5,2.5,9.9c1.3,1.5,2.5,2.9,3.4,3.9
		c-5.7,3.6-11.2,6.5-13.3,13.4c-0.5,1.6-2.5,3-4.1,3.8c-3.3,1.8-6.9,3.1-10.9,4.8c-1.9-5.3-4.1-11.5-5.9-16.6
		c-19.1,0.9-27.8,17.3-41.2,25.8c0.5,4,1.1,8.2,1.6,12.3c-0.8,0.2-1.7,0.5-2.5,0.7c-1.5-4.1-3-8.1-4.5-12c2.7-3.4,5.5-6.4,7.9-9.7
		c3.2-4.5,3.2-7.5-1.5-12.5c-3.5-3.8-2.5-12-3-18.3c-0.2-1.8,1.3-3.6,2.5-6.5c-2-1-4.2-2.1-6.3-3.2c0.4-0.6,0.8-1.3,1.2-1.9
		c2.1-0.2,4.5-1,6.3-0.3c5.7,2.1,9.8-2.1,13.5-4.2c8.4-4.8,15.6-5,23.2,2c-1.6-0.3-3.1-0.5-4.6-0.8c2.1,4.8,4.1,9.2,6.3,14
		c0.3-0.1,1.5-0.3,2.6-0.5L469.3,741z M431.3,755.6c0.7,0.6,1.5,1.3,2.2,1.9c2.5-1.9,7.1-3.8,7.1-5.7c-0.1-6.1-1.8-12.2-3.2-19.8
		c-4.4,3.7-6.7,5.8-9.2,7.9C432.3,744.7,440.7,748,431.3,755.6z"/>
	<path class="st1" d="M495.3,624.8c-2.1-1.2-4.2-2.4-6.7-3.8c-1.4,5.6-3.6,9.3-10.3,8c-1.9-0.4-4.5,2.7-7.9,5
		c-0.4-6.5-0.9-12.7-1.3-18.9c-0.6,0-1.3-0.1-1.9-0.1c0,3.3-0.3,6.7,0.1,9.9c0.7,6-1.3,7.6-7.5,7.3c-2.8-0.1-5.7,2.4-10,4.4
		c-1.4-4.9-2.7-9.3-4-14c0,4.3,0,8.5,0,12.9c-1.9,0.3-3.5,0.5-5.4,0.8c-0.5-8.6-1.4-16.8-1-24.9c0.1-2.7,3.4-7.3,5.7-7.6
		c8.9-1.4,18.1-1.8,27.1-1.5c1.8,0.1,4,4.3,5.1,7c0.8,1.9,0.2,4.5,0.2,6.8c0.8,0,1.5,0,2.3,0c0-4.1,0-8.1,0-12.2
		c2.7,0.5,4.7,0.9,6.8,1.3c0.2,3.9,0.4,8.2,0.7,12.4c0.7,0,1.5,0,2.2,0c0-4.3,0-8.6,0-13.9c7.1,1.2,13.2,2.3,17.2,3
		c-3.4,6.3-6.7,12.4-9.9,18.5C496.2,625.1,495.7,625,495.3,624.8z"/>
	<path class="st1" d="M1572.6,640.4c-7.3,3.3-13.5,10-21.1,8c-1.5-4.8-2.7-8.4-3.8-12c-10.9,5.5-14.6-7-23.2-7
		c0.3-0.7,0.5-1.4,0.8-2.1c4.8,1.7,9.5,3.7,14.5,4.9c6.2,1.6,10.7-3,9.1-9.2c-1.2-4.7,1.2-7.2,4.3-10c3.4-3,5.2-1.1,8.2,0.8
		c2.9,1.9,7,2,10.4,4.3c-4.3-0.5-8.7-1-13-1.4c-0.1,0.9-0.3,1.7-0.4,2.6c13.1,2.5,26.3,4.7,39.3,7.6c9.5,2.1,18.6,5.5,28.1,7.5
		c3.9,0.8,8.3-0.7,12.7-1.2c-1.5,12.5-3.2,26.3-4.9,40c-0.8,0.1-1.6,0.3-2.4,0.4c-1.7-9.5-4.3-19-4.9-28.6c-0.4-6.2-3.8-7.7-8.2-8.6
		c-15.8-3.3-31.7-6.3-47.6-9.3c-2.7-0.5-5.6-0.7-10.5-1.3c2.4,2.5,3.2,3.4,4.9,5.2c-3.4,0-5.5,0-9.3,0c4.6,3.5,8.1,6.1,11.6,8.8
		C1569.1,640,1570.9,640.2,1572.6,640.4z"/>
	<path class="st1" d="M473,716.2c0.7,1.5,1.5,3,2.2,4.4c-0.6,0.5-1.2,1.1-1.8,1.6c-4.6-5-9.9-9.6-13.8-15.2
		c-7-9.9-17.8-12.5-28.7-4.9c10.6-5.9,16.4-0.8,20.6,7.7c-7.5,7.6-15.5,2.3-23.7,0c0.3-6,0.7-13.2,1.1-21.4
		c12.7-3.2,26.5-1.1,40.2,0.5c2,0.2,4.1,0.2,5.8,1c1.6,0.8,2.8,2.5,4.2,3.7c-1.8,0.5-3.9,1.8-5.3,1.3c-12.5-5-25.3-3.3-38.2-2
		c3,0.3,6,0.7,9,1c11.2,1.1,16.4,10.3,23.4,17.2c1.7,1.7,3.3,3.6,4.9,5.4C473.1,716.4,473,716.2,473,716.2z"/>
	<path class="st1" d="M1617.6,741.9c1.3,9,2.6,18.1,3.8,26.6c-1.8-1.1-4.6-2.6-8.3-4.8c0,3.5,0,5.3,0,7.5c-0.6-0.7-1.2-1.1-1.4-1.6
		c-0.6-1.6-1-3.3-1.6-5c-4.5-13.3-6.5-14.1-19.2-5.7c3.3-6,5.8-10.5,7.9-14.2c-2-1.5-3.7-2.9-5.4-4.2c1.2-1.5,2.7-2.9,3.6-4.6
		c1.3-2.4,2.3-5,3.8-8.4c1.7,1.4,3.6,3.2,5.8,4.5c1.1,0.7,3.1,1.2,3.9,0.7c7.4-4.9,8.1,0.7,9.1,5.7
		C1619,739.6,1618.3,740.7,1617.6,741.9z"/>
	<path class="st1" d="M1572.3,953.7c-0.3-8.7,6.5-4.5,9.1-5.3c1.9-3,3.3-5.1,4.7-7.3c-4.6-3.3-8.3-41.4-4.3-52.9
		c0.9,4.3,1.3,7.8,2.5,11.2c0.5,1.5,2.6,3.9,3.6,3.7c9.4-1.4,8.7,4.8,7,11.2c-0.6-2-1.1-3.9-1.8-6.2c-2.7,0.9-5.5,1.9-9.4,3.2
		c0.8,6.3,1.7,13.3,2.7,20.5c5.7,1.1,11,3.7,12.3,10c-3.3,2.1-5.8,3.7-8.2,5.3c0.2,0.8,0.4,1.5,0.6,2.3c3.6,0.2,7.2,0.3,10.4,0.5
		c-0.1,1.6-0.2,3.9-0.4,6.6c-6.1-0.6-12.2-1.3-18.4-1.9c-3.4-0.3-6.9-0.7-10.3-1L1572.3,953.7z"/>
	<path class="st1" d="M513.8,985.9c-4.7,5.1-10,2.4-15.1,1.1c-3.6-0.9-7.3-2.5-10.9-2.4c-9.8,0.2-9.8,0.4-17.8-5.6
		c0.9,12,1.8,23.5,2.7,34.9c0.8,0,1.5-0.1,2.3-0.1c-1.5,0.7-3,1.3-4.6,2c-1-2.5-3.2-5.2-2.9-7.5c1.7-14.5-1.4-28.6-3.5-42.8
		c-0.5-3.1,0.2-6.4,0.3-10c2.8,7.1,4.3,13.4,7.5,18.8c3.8,6.4,11,7.2,17.9,7c6.5-0.3,13.6,2.3,18.4-5.9c1.5-2.6,8.5-2.2,13.1-2.4
		c0.6,0,1.5,4.5,2.2,6.9c-2.3,1-4.7,1.8-6.8,3C515.3,983.4,514.7,984.8,513.8,985.9z"/>
	<path class="st1" d="M436.7,664c5.8,0,11.6,0,17.4,0c0,0.6,0.1,1.3,0.1,1.9c-4.3,0-8.5,0-12.8,0c-0.1,0.5-0.1,1.1-0.2,1.6
		c7.8,1.5,15.6,3.1,23.4,4.6c-8.9-0.1-17.9-2.9-28.1,3.4c9.5,1.5,17,2.7,24.5,3.9c-0.1,0.8-0.2,1.5-0.3,2.3
		c-10.4,0.9-20.8,1.8-32.8,2.9c1.3-3,3.6-6.1,3.7-9.3c0.3-5-1-10.2-1.2-15.3c-0.3-5.1,1.3-6.6,6.8-4.2c3.8,1.7,8.7,0.9,15,1.4
		c-6.3,1.7-11.3,3-16.3,4.4C436.2,662.4,436.4,663.2,436.7,664z"/>
	<path class="st1" d="M1596.1,892.6c-2.2-7.6,3.4-11.3,8.1-12.6c3.2-0.9,8.7,2.4,11.4,5.4c2.8,3.1,3.1,8.2,5,12.2
		c1.6,3.3,3.8,6.3,5.7,9.5c0.7-0.3,1.4-0.6,2.1-0.9c-0.1-2.3-0.2-4.7-0.4-7.7c4.4,5,4.4,5,0.8,18.9c-4.8-5-9.7-10.1-13.9-14.5
		c-0.7-4.1,0-9.5-2.2-11.3C1605.6,885.8,1602.4,886.5,1596.1,892.6z"/>
	<path class="st1" d="M1502.4,954.2c0,0,0.2,0.2,0.2,0.2c4.9,1.7,9.8,3.4,13,4.4c1.7,3.3,2.9,5.6,4.4,8.6c-1.9-0.1-3.7-0.3-5.5-0.3
		c-6.1,0-12.3-0.3-18.4,0.2c-6.7,0.6-15.7-4.8-18.7-12c0,0-0.1,0.3-0.1,0.3C1485.7,955.2,1494,954.7,1502.4,954.2z"/>
	<path class="st1" d="M1052.7,936.1c0.6-0.6,1.1-1.3,1.7-1.9c0,0,0.1,0.2,0.1,0.2c3.2-2.9,6.4-5.8,9.7-8.7c-0.3,1.8-1.3,4-0.7,5.4
		c2.8,6.5,5.3,12.5,2.1,20c-1.3,3.1,1.3,7.9,2.3,12.4c0.2,0-1.1,0.1-2.8,0.2c0.2,3.3,0.4,6.8,0.6,10.8c-1.3,0-2.9,0-4.4,0.1
		c2.4-6.4-0.4-11.7-3.8-16.9c-1-0.9-1.9-1.8-2.9-2.8c4.3-4.8,5.1-10.4,3.4-17.5c-1.9,0.6-3.8,1.2-5.7,1.8
		C1052.4,938.3,1052.6,937.2,1052.7,936.1C1052.7,936.1,1052.7,936.1,1052.7,936.1z"/>
	<path class="st1" d="M463.4,807.1c16.8,0,33.6-0.5,50.2,0.3c5.9,0.3,11.8,3.2,17.6,5.4c1.4,0.6,2.1,3.2,3.7,5.8
		c-6.5-2.3-11.3-6.6-17.2-1.7c0-2,0-3.9,0-6.9c-13.2-0.8-26.5-1.7-39.7-2.5c-5.5,5.9,2.1,15.8-6.1,20.7c1.7-4.9,3.1-8.6-4.7-7.9
		c-1.9,0.2-4-1.6-5.1-2c3.5-1.1,7.2-2.3,10.9-3.5C469.9,812.2,466.8,809.8,463.4,807.1z"/>
	<path class="st1" d="M537.4,651.7c0-8.8,0-17.7,0-27.8c0,0,2.7-1.6,2.5-2.8c-0.2-1.7-2.3-3.7-4-4.4c-4.5-1.9-9.2-3.1-13.8-4.5
		c0.2-0.8,0.5-1.6,0.7-2.4c7.4,2,15,3.7,22.2,6.3c1.5,0.5,2.9,4.8,2.4,6.8c-2.5,9.8-5.7,19.3-8.6,29
		C538.4,651.9,537.9,651.8,537.4,651.7z"/>
	<path class="st1" d="M161.7,1030.2c-1.8,1.9-3.6,5.3-5.5,5.3c-3.6,0.1-8.2-0.8-10.6-3c-5.1-4.7-7.2-4.9-12.4-0.4
		c-2.2,1.9-6,2.3-9.2,2.4c-1.3,0-2.7-2.6-4.1-4c1.7-1.3,3.4-3.7,5.1-3.8c7.9-0.4,15.9-0.5,23.8,0c2.6,0.2,5.2,2.4,7.9,3.8
		c2.4-3.5,2.4-3.5,4.7-0.6C161.6,1029.9,161.7,1030.1,161.7,1030.2z"/>
	<path class="st1" d="M1639.9,1006.5c-21.9,11.9-44.7,18.8-69.6,12.5c-4.7-1.2-9.3-1.8-9.2-8.3c0-0.7-1.7-1.4-2.9-2.4
		c4.9-4.7,9.4-0.3,10.1,2.3c2,7.5,7.9,8.2,13.1,8.1c14.2-0.1,28.7,0.2,42-6.4c2.4-1.2,4.5-2.8,7-3.7
		C1633.5,1007.6,1636.7,1007.2,1639.9,1006.5z"/>
	<path class="st1" d="M127.9,791.3c0.4-8.1,0.7-13.7,1-20.9c7.8,1.4,14.8,2.6,21.9,3.8c0.1,0.4,0.2,0.8,0.2,1.2
		c-3.3,0.5-6.7,0.9-11.1,1.5c2.1,1.6,3.3,2.6,4.7,3.6C139.4,784,134.5,787.1,127.9,791.3z"/>
	<path class="st1" d="M1511.7,989.1c-0.1-0.1-0.3-0.3-0.4-0.4c1.5-8.8-0.8-10.4-14.6-9.6c0.3-1,0.3-2.3,0.9-2.7
		c4.4-2.9,16.6-0.8,20,3.4c5.5,6.7,7.4,6.6,13.3-0.5c3,0.6,5.9,1.3,8.9,1.9c0.1,0.5,0.2,1,0.3,1.5
		C1530.7,984.9,1521.2,987,1511.7,989.1z"/>
	<path class="st1" d="M1617.6,741.9c0.7-1.1,1.4-2.3,2.1-3.4c0.9-4.2,1.9-8.4,3.2-14.2c1.9,1.6,4.9,3.3,4.7,3.9
		c-3.8,10.8,2.2,20.3,3.9,30.3c0.4,2.1,0.6,4.2,0,6.5c-3.1-5.2-6.2-10.3-9.3-15.5c0,0,1.4-0.7,2.7-1.3c-1.3-1-2.8-1.8-4-2.9
		C1619.7,744.2,1618.7,743,1617.6,741.9z"/>
	<path class="st1" d="M1622.9,711.1c-6.2,3.1-34.7-1-37.9-6.1C1596.9,710.9,1611.5,698.5,1622.9,711.1z"/>
	<path class="st1" d="M1615.7,565.3c3.1-2.4,6.1-4.8,9.9-7.7c3.3,6.2,6.8,13,11.4,21.6c0.7-3.9,1.1-5.9,1.4-7.9c0.4,0,0.8,0,1.2,0
		c0,2.6,0.7,5.4-0.2,7.7c-0.8,2-3.3,3.3-5.5,5.5c-2-4.6-3.9-9.2-6.3-14.8c-0.9,3.6-1.6,6.2-2.4,9.3c-1.7-0.8-3.2-1.4-4.6-2
		c7.9-0.8-2.2-5.9,1.8-7.6C1620.1,568,1617.9,566.6,1615.7,565.3z"/>
	<path class="st1" d="M495.3,624.8c0.5,0.1,0.9,0.2,1.4,0.4c3.7-1.2,7.4-2.4,11.3-3.7c0.4-1.6,0.9-3.8,1.5-6
		c0.5,0.1,1.1,0.1,1.6,0.2c0,5.9,0,11.8,0,17.7c-0.4,0.1-0.8,0.3-1.2,0.4c-0.8-3-1.6-5.9-2.3-8.9c-0.7-0.1-1.3-0.1-2-0.2
		c-0.6,2.6-1.1,5.3-1.9,8.7c-1.9-0.8-4.5-1.8-6.6-2.6c-1.4,1.2-2.8,2.4-4.1,3.6c-1-2.8-2.8-5.6-2.7-8.3
		C490.3,622,493,623,495.3,624.8z"/>
	<path class="st1" d="M1018.9,513.5c-0.6-8.8,7.7-11.9,11.6-17.8c2,2.4,3.9,4.8,6.2,7.6c-2.1,0.7,3.9,7.4-3.4,6.4
		c-2.7,1.1-5.3,2.2-7.9,3.3c-1.6,0.5-3.2,1.1-4.8,1.6c0,0,0.3,0,0.3,0C1020.2,514.3,1019.6,513.9,1018.9,513.5z"/>
	<path class="st1" d="M202,1096.4c-3.1-1.5-6.2-2.9-9.3-4.4c-2.1-2.9-4.3-5.8-6.4-8.7c-5.7-4.5-11.3-9-17-13.5
		c0.4-0.5,0.8-1,1.2-1.5c2.5,1.8,5,3.6,7.9,5.7c1.3-1.7,2.7-3.4,5.9-7.3c1,4.8,1.5,7.6,2.1,10.4c4.2,3,9.3,6.7,14.5,10.4
		c-1.2,1.1-2.5,2.3-3.7,3.4c2.3-2.1,4.5-4.2,6.8-6.3C203.2,1088.5,202.6,1092.5,202,1096.4z"/>
	<path class="st1" d="M456.8,1018.4c-6.9-6.8-3.8-14.3-1.2-21.6c0.4-1.1,2.2-2.6,2.9-2.4c1.3,0.4,3.1,1.7,3.4,3
		c1,3.7,1.4,7.6,2,11.4c-0.7-0.2-1.3-0.5-2-0.7C460.3,1011.5,458.6,1014.9,456.8,1018.4C456.8,1018.3,456.8,1018.4,456.8,1018.4z"/>
	<path class="st1" d="M476.6,1089.2c12.3-0.8,24.6-1.6,37.2-2.4c-1-1.2-2.1-2.5-3.6-4.2c1.8-0.7,3.3-1.3,4.7-1.9
		c0.6,0.3,1.2,0.6,1.7,1c-1.6,3.1-3.1,8.7-4.9,8.8c-11.7,0.8-23.4,0.4-35.1,0.4C476.7,1090.3,476.7,1089.7,476.6,1089.2z"/>
	<path class="st1" d="M219.6,1042.7c-1.8,3.2-3.4,6.6-5.5,9.7c-0.8,1.2-2.7,1.6-4.1,2.3c-0.1-0.2-0.1-0.3-0.2-0.4
		c-4.3-11-3.5-15.6,3.5-19.3c0.9-0.2,1.7-0.3,2.6-0.5c1.3,2.3,2.6,4.6,3.9,6.8C219.7,1041.7,219.6,1042.2,219.6,1042.7z"/>
	<path class="st1" d="M464.7,728.2c4.9-1,9.7-2,15.7-3.3c-2.7,5.2,3.3,12.4-5.4,16.4c0,0.2,0.3,1.6,0.7,4c-2.6-1.8-4.5-3.1-6.4-4.4
		c0,0,0.3,0.3,0.3,0.3c4.4-5.1,3.5-8.7-2.9-11C465.9,730,465.4,728.9,464.7,728.2z"/>
	<path class="st1" d="M473.1,716.4c1.9-4.9,3.8-9.8,6.1-15.7c1.8,1.8,3.5,3.6,5.5,5.2c1.4,1.1,3.1,2.2,4.8,2.7
		c1.4,0.4,3.1-0.2,4.7-0.4c-0.4,2-0.8,4-1.3,6.3c-9.1-5.7-9.4-5.6-12.3,1.3c-2.9,0.2-5.4,0.3-7.7,0.4
		C473,716.2,473.1,716.4,473.1,716.4z"/>
	<path class="st1" d="M1599.6,678.4c-7.2-14-5.9-29.7-9.8-44.3c0.8-0.2,1.7-0.4,2.5-0.6c1.8,7.6,3.8,15.2,5.4,22.9
		c1.5,7.3,2.7,14.8,4,22.2C1601,678.5,1600.3,678.4,1599.6,678.4z"/>
	<path class="st1" d="M1622.7,677.9c1.4-1.6,2.8-3.1,4.3-4.7c1.5,1.8,3.4,3.4,4.3,5.5c1.2,3.1,1.7,6.5,2.3,9.1
		c-4.1,1.8-7.2,3.2-9.1,4c-0.6-4.9-1.1-9.6-1.6-14.3C1622.9,677.5,1622.7,677.9,1622.7,677.9z"/>
	<path class="st1" d="M1622.7,677.9c0,0,0.2-0.4,0.2-0.4c-1.6,1.1-3.1,2.2-5.5,3.9c-1.9-13.9-3.6-27-5.4-40
		c-2.9,0.2-4.8,0.4-6.6,0.6c7.3-4.5,8.7-3.8,9.9,3.7c1.3,8,2.1,16.1,3.7,24.1C1619.6,672.5,1621.4,675.1,1622.7,677.9z"/>
	<path class="st1" d="M177.2,1026.3c7.3-0.9,14.6-1.9,21.9-2.6c1.6-0.1,4.1,0.8,4.8,2c0.7,1.5,0.6,4.6-0.4,5.4
		c-1.2,1-3.8,0.5-5.8,0.3c-1.7-0.1-3.3-0.7-5.8-1.2c2.2-0.8,3.9-1.3,7.1-2.5c-8.4-0.7-15.2-1.2-22-1.8
		C177,1026.1,177.2,1026.3,177.2,1026.3z"/>
	<path class="st1" d="M1628.3,590.8c1.4,3.9,2.7,7.7,4.4,12.3c1.5,0.6,4,1.6,6.6,2.6c-0.1,0.4-0.3,0.9-0.4,1.3
		c-2.1-0.5-4.3-1-8.3-1.9c2.7,2.1,3.8,3.1,5.7,4.6c-4.5,0.3-8,0.5-10.4,0.6c0-6.6,0-12.5,0-18.4
		C1626.7,591.5,1627.5,591.1,1628.3,590.8z"/>
	<path class="st1" d="M146.9,797c0,0-0.1,0.3-0.1,0.3c0.5,3.1,1.1,6.1,1.6,9.2c0.7,0,1.3-0.1,2-0.1c-1.2,2-2.3,4-4,6.8
		c-2-3.3-3.4-6.2-5.4-8.5c-2.2-2.5-5.1-4.4-7.8-6.6c0,0,0.1,0.2,0.1,0.2C137.6,794.3,142.2,794.4,146.9,797z"/>
	<path class="st1" d="M1014.8,568.8c-0.5-1.4-0.9-2.8-1.4-4.2c0.6-2,1.3-4,1.8-6c0.6-2,1-4,1.7-6.6c2,0.9,4.6,2.1,7.6,3.4
		c-1.2,2-2.1,3.6-3.1,5.3c1.3,0.7,2.6,1.3,4.4,2.2C1021.9,565,1018.3,566.9,1014.8,568.8z"/>
	<path class="st1" d="M1023.7,599c-1,1.2-2,2.5-2.9,3.7c-1.2-1.1-3.1-2.1-3.3-3.3c-0.6-3.8-0.5-7.7-0.6-11.5
		c0.8-0.4,1.6-0.7,2.3-1.1c1.3-0.1,2.6-0.2,3.9-0.2c-0.1,0.6-0.1,1.1-0.2,1.7l0.3-0.3c-1.1,0.5-2.1,1-3.2,1.5c0.7,0,1.4,0.1,2.1,0.1
		c1.3,1.8,2.7,3.5,3.8,5.5c0.5,0.9,0,2.2-0.1,3.4C1025.1,598.6,1024.4,598.8,1023.7,599z"/>
	<path class="st1" d="M1599.2,614.9c-5.2-1-10.3-2-16.4-3.2c1.3-2.8,2.6-5.6,3.8-8.5c4.7,3.1,9.3,6.1,14,9.2
		C1600.1,613.3,1599.7,614.1,1599.2,614.9z"/>
	<path class="st1" d="M434.4,799.7c0,0,0.3,0.3,0.3,0.3c2.8-2.3,5.7-4.6,8.2-6.7c2.2,1.4,5.6,3.6,8.9,5.9c1.1,0.7,1.9,1.8,2.8,2.7
		c-1.3,0.7-2.8,2.3-3.9,2.1C445.1,802.8,439.7,801.2,434.4,799.7z"/>
	<path class="st1" d="M1632.4,856.3c0.1-4.8,2.4-6.5,10.9-4.4c4.1,1,7.7,4.6,12.7,7.8C1647.4,858.5,1640.1,857.4,1632.4,856.3z"/>
	<path class="st1" d="M1590,833.9c0,9.8,0,19.5,0,29.3c-0.6,0-1.2,0-1.8,0c0-9.8,0-19.5,0-29.3
		C1588.8,833.8,1589.4,833.9,1590,833.9z"/>
	<path class="st1" d="M1572.4,953.5c-7.7,1-15.3,5.2-23.8,1.3c0.9-2.6,1.6-4.8,2-6.2c7.3,1.7,14.4,3.4,21.6,5.1
		C1572.3,953.7,1572.4,953.5,1572.4,953.5z"/>
	<path class="st1" d="M1591.3,724c-4,0-5.9,0-7.9,0c0.1-0.9,0.1-1.7,0.2-2.6c2.4,0.2,5.3-0.4,6.9,0.8c1.9,1.4,2.5,4.4,3.7,6.7
		c-3.6,1.5-7.3,2.9-10.9,4.4c-0.5-1-1-2-1.5-2.9C1584.4,728.7,1586.9,727,1591.3,724z"/>
	<path class="st1" d="M626.7,578.7c-6.6,3.8-12.7,3.2-18.2-2.2c0.2-1.6,0.5-3.2,0.9-5.6c4.9,3.3,8.7,10.9,15.6,1.3
		C625.7,575.2,626.2,576.9,626.7,578.7z"/>
	<path class="st1" d="M487.5,642.2c4,0.8,8.4,1.7,12.7,2.6c0.2,6.7-5.2,10.1-9,5.9C489.3,648.6,488.8,645.3,487.5,642.2z"/>
	<path class="st1" d="M1028,461.7c-0.7,1.1-1.5,2.2-2.2,3.2c-1.5-0.7-2.9-1.4-4.4-2.1c1.9-3.1,3.7-6.3,5.6-9.4
		c1.5,1,3.1,1.9,4.6,2.9C1030.3,458.1,1029.2,459.9,1028,461.7z"/>
	<path class="st1" d="M170.7,785.8c-3.7-7.4-0.9-12,6.2-15.2c0,4.4,0,8.5,0,12.9C175,784.2,172.9,785,170.7,785.8z"/>
	<path class="st1" d="M209.8,1054.2c0.1,0.1,0.1,0.3,0.2,0.4c0.7,6.9-5.6,4-8.4,6c0.4-0.4,0.4-0.9-0.1-1.3c0,0,0.1,0.1,0.1,0.1
		c-0.7-4.2-1.3-8.4-2.2-14.3C203.7,1049,206.8,1051.6,209.8,1054.2z"/>
	<path class="st1" d="M1528.2,572.7c3.4,1,6.7,2,10.1,3c0.1,0.7,0.3,1.5,0.4,2.2c-3.1,1.5-6.5,4.7-9.1,4.2c-3.1-0.6-5.5-4.5-7.1-8.2
		c3.4,1.3,6.7,2.7,10.1,4c0.2-0.7,0.5-1.4,0.7-2.1c-1.8-0.3-3.6-0.7-5.4-1C1527.9,574.1,1528.1,573.4,1528.2,572.7z"/>
	<path class="st1" d="M536.6,665.8c-0.8-2.6-1.7-5.2-2.5-7.9c-2.7,1.5-6,3.4-8,4.5c1.9-2.3,4.2-6,7.4-8.6c0.6-0.5,5.2,2.6,6.8,4.8
		c0.9,1.2-0.6,4.1-1,6.3C538.3,665.3,537.5,665.5,536.6,665.8z"/>
	<path class="st1" d="M482.1,641.2c-8.1,4.3-14.9,6.6-21.6,0.9c0-0.8,0.1-1.6,0.1-2.4C467.4,640.2,474.1,640.6,482.1,641.2z"/>
	<path class="st1" d="M489,956.3c7.6,1.8,15.1,3.5,22.7,5.3c-1.3,0.7-2.6,1.6-4.1,2c-1.9,0.6-5.5-1.6-5,3.1c0,0.1-2,0.7-2.7,0.4
		c-3.9-2.1-7.8-4.3-11.5-6.8C488,959.9,488.8,957.7,489,956.3z"/>
	<path class="st1" d="M514.8,838.3c-11.3-0.8-22.6-1.5-33-2.2c10.6,0,21.9,0,33.3,0C515,836.8,514.9,837.6,514.8,838.3z"/>
	<path class="st1" d="M1566.8,709.4C1566.8,709.4,1566.9,709.4,1566.8,709.4c1.4-0.9,2.8-1.8,3.6-2.3c4.1,3.6,8.2,7.2,12.2,10.7
		C1578.1,720,1568.4,715.2,1566.8,709.4z"/>
	<path class="st1" d="M510.1,954.2c-11.6-0.1-23.2-0.3-34.7-0.4c-1.9,0-3.9,0-5.8,0c-0.1-0.5-0.3-1-0.4-1.5c2.1-0.5,4.1-1.6,6.2-1.6
		c10.9,0.3,21.9,0.7,32.8,1.3C508.9,952.2,509.5,953.5,510.1,954.2z"/>
	<path class="st1" d="M1610.2,933.5c0.8,1.5,1.6,3,3.2,5.7c0.8-5,1.4-8.1,2.1-12.6c2.1,5.6,3.7,9.6,5,13.7c0.2,0.7-0.4,2.3-1.1,2.6
		c-1,0.5-2.5,0.5-3.4,0.1c-3.4-1.6-6.7-3.5-10-5.3C1607.4,936.3,1608.8,934.9,1610.2,933.5z"/>
	<path class="st1" d="M152.7,1051.3c-0.6,2.3-1.2,4.6-1.6,6.1c-2.2-3-3.7-7.1-6.5-8.2c-3.4-1.4-7.9-0.3-11.6-0.3
		c4.1-6.7,10.9-5.9,19.9,2.6C152.9,1051.5,152.7,1051.3,152.7,1051.3z"/>
	<path class="st1" d="M159.2,1080.3c-5.1-4.5-10.2-9-14.9-13.2c4.8-1.7,10,1.6,16.2,11.5C160,1079.2,159.6,1079.7,159.2,1080.3z"/>
	<path class="st1" d="M1586.4,981.2c-3.6,1.9-7.1,3.7-10.7,5.6c-1.9-2.2-4-4.7-6.1-7.1C1575.7,974.8,1580.9,979.8,1586.4,981.2z"/>
	<path class="st1" d="M152.9,1051.5c3.7-10.5,14-14.9,25.2-9.3c-2.9,0-4.4,0.1-5.9,0c-7.4-0.7-13.3,1.3-16.5,8.7
		c-0.2,0.5-1.9,0.3-2.9,0.4C152.7,1051.3,152.9,1051.5,152.9,1051.5z"/>
	<path class="st1" d="M1613.5,1006.7c-7.5,1.1-14.9,2.2-22.4,3.3c-0.1-0.8-0.3-1.7-0.4-2.5c7.7,0.2,14.3-5.5,22.3-3
		C1613.1,1005.3,1613.3,1006,1613.5,1006.7z"/>
	<path class="st1" d="M473.9,832.2c1.2,5,2.4,10.1,3.6,15.1c-1.2,0.3-2.3,0.5-3.5,0.8c-1.1-5-2.3-10.1-3.4-15.1
		C471.7,832.7,472.8,832.4,473.9,832.2z"/>
	<path class="st1" d="M1885.1,921.7c6-3.9,12.3,1.4,18.5,2.1c-6,0.3-12,0.5-18,0.8C1885.5,923.6,1885.3,922.6,1885.1,921.7z"/>
	<path class="st1" d="M522.2,713.7c0.8,1.2,2.9,4.1,2.7,4.2c-3.8,3.4-7.9,6.4-12.5,8.7C515.6,722.5,518.7,718.4,522.2,713.7z"/>
	<path class="st1" d="M1600.7,605c3.9,1.6,7.9,3.3,12.3,5.1c-3,1.9-5.3,3.3-7.9,4.9C1603.6,611.6,1602.3,608.5,1600.7,605z"/>
	<path class="st1" d="M1610.7,1063.5c7.5,7,13.6,12.7,19.7,18.4C1623.2,1080.9,1616.7,1075.1,1610.7,1063.5z"/>
	<path class="st1" d="M1110.8,801.2c-1.2-4.2-2-7.2-2.8-10.2c5,8.3,2,17.5,3.2,25.7c-1.2-5.4-2.6-11.2-3.8-16.5
		C1106.6,800,1107.8,800.4,1110.8,801.2z"/>
	<path class="st1" d="M1577.9,994c2-3.1,4-6.1,6-9.2c4.2,0.9,8.5,1.8,12.7,2.7c0,1.2,0,2.4,0,3.6
		C1588.7,985.3,1583.6,990.9,1577.9,994z"/>
	<path class="st1" d="M1533.1,966.9c-6.5,1.5-10.2-0.2-9.5-7.3C1531,956.7,1530.3,964.2,1533.1,966.9z"/>
	<path class="st1" d="M152.4,1044.3c-8.8-4.7-17-4.5-24.7,2.4c-0.3-0.7-0.7-1.4-1-2.2c3-1.7,5.9-4.4,9.1-4.9
		C141.7,1038.8,148.5,1036.9,152.4,1044.3z"/>
	<path class="st1" d="M1603.6,551c-2.1,3-3.2,4.7-4.6,6.7c-2.8-2.8-5.2-5.2-9.3-9.3C1594.8,549.4,1598.6,550.1,1603.6,551z"/>
	<path class="st1" d="M503.6,863.3c-3.3,0.2-5.9,0.5-8.5,0.3c-0.9-0.1-2.3-1.2-2.5-2c-0.2-0.9,0.3-2.5,1.1-3.1
		C495.7,857,502.3,860.2,503.6,863.3z"/>
	<path class="st1" d="M501.4,760.4c6.8,0,13.6,0,20.4,0c0,0.7,0,1.5,0,2.2c-6.8,0-13.6,0-20.4,0
		C501.4,761.8,501.4,761.1,501.4,760.4z"/>
	<path class="st1" d="M201.7,1059.6c0,0-0.1-0.2-0.1-0.1c-2.1,1.4-4.3,2.7-6.4,4.1c-5.2,3.5-9.4,3-12.3-1.4c5-1.4,9.9-2.9,14.9-4.1
		C198.9,1057.9,200.3,1059,201.7,1059.6z"/>
	<path class="st1" d="M124.7,1050c-8-9.8-12.4-10.7-22.1-5.2c2.5-5.4,3.8-6.1,10-5.7C119.2,1039.5,122,1041.8,124.7,1050z"/>
	<path class="st1" d="M1572.1,873.9c2.8,0.7,4.4,1.1,5.6,1.4c-1,4.9-2,9.5-3.4,16C1573.5,884.6,1572.9,879.7,1572.1,873.9z"/>
	<path class="st1" d="M161.7,1030.2c0-0.2-0.1-0.3-0.2-0.5c4.2-5.7,10.1-3.7,15.7-3.5c0,0-0.2-0.2-0.2-0.2c-0.3,1.9-0.5,3.8-1.1,7.5
		c-3.5-7.6-7.1-5.5-10.9-3.5C164.2,1030.7,162.8,1030.2,161.7,1030.2z"/>
	<path class="st1" d="M502.3,785.1c-5.8-1-9.6-1.7-13.3-2.4c0-0.2,0-0.4,0-0.5c2.5,0,4.9,0,8,0c-1.1-2-1.9-3.5-2.7-4.9
		c0.7-0.5,1.5-1,2.2-1.5C498.1,778.4,499.7,781,502.3,785.1z"/>
	<path class="st1" d="M154.3,1058.4c5.6,7.6,12,8.9,19.4,2.7c-2.2,4.8-6.9,7.3-12.6,5.7c-3.1-0.8-5.5-3.9-8.3-6
		C153.3,1060,153.8,1059.2,154.3,1058.4z"/>
	<path class="st1" d="M481,943.2c-0.9-4.3-1.9-8.8-3.2-14.5c2.2-0.9,4.9-2,7.7-3.1C476.6,930,484.2,938.2,481,943.2z"/>
	<path class="st1" d="M1568.3,811.1c4.7-0.6,5.7,2,3.8,15.5C1570.7,820.6,1569.4,815.8,1568.3,811.1z"/>
	<path class="st1" d="M1572.6,597.8c9.5,1.3,10.1,2.4,6.5,11.3C1576.9,605.4,1574.8,601.6,1572.6,597.8z"/>
	<path class="st1" d="M1626.6,698.7c0,0-0.1,0.2-0.1,0.1c7.6,2.7,8.4,5.2,3.2,13.4c-0.5-3.1-0.7-4.9-1-6.6c0.5,0,1-0.1,1.6-0.1
		C1629.1,703.2,1627.8,701,1626.6,698.7z"/>
	<path class="st1" d="M1569.5,551.8c2.7,2,5.3,4,8.7,6.6c-1.4,0.7-4,2.7-4.5,2.3c-2.5-2.1-4.4-4.9-6.5-7.4
		C1568,552.8,1568.8,552.3,1569.5,551.8z"/>
	<path class="st1" d="M1606.9,965.6c-7.5,3.7-13.3,4-19.1,0C1593.6,965.6,1599.4,965.6,1606.9,965.6z"/>
	<path class="st1" d="M203.1,1042.6c-6-6-11.9-3.7-19,1.1c4-6.6,8.7-8,13.9-7.3c2.2,0.3,4.1,2.8,6.1,4.3
		C203.7,1041.4,203.4,1042,203.1,1042.6z"/>
	<path class="st1" d="M1023.7,599c0.7-0.2,1.5-0.4,2.2-0.6c0.1,1.6,0.1,3.3,0.2,4.9C1025.2,601.9,1024.4,600.5,1023.7,599z"/>
	<path class="st1" d="M1024,622.2c0.7-1.2,1.3-2.3,2-3.5c1.1,1.4,2.2,2.7,3.3,4.1c-1.1,0.5-2.2,0.9-3.4,1.4l0.2-0.2
		c-0.8-0.5-1.5-1-2.3-1.5L1024,622.2z"/>
	<path class="st1" d="M1024.2,628.5c-0.9-0.6-1.8-1.3-2.8-1.9c1.6-0.3,3.1-0.5,4.7-0.8l-0.2-0.3c0.3,1.2,0.5,2.5,0.8,3.7
		C1025.8,628.9,1025,628.7,1024.2,628.5z"/>
	<path class="st1" d="M1026,586.5c0.5,0.1,1,0.1,1.5,0c0.6,0.3,1.2,0.6,1.9,0.9c-1.5,0.7-3,1.5-4.6,2.2c0,0-0.2,0.2-0.2,0.2
		C1025,588.7,1025.5,587.6,1026,586.5z"/>
	<path class="st1" d="M1029.2,622.5c-0.9,2.2-1.9,4.5-2.8,6.7c-0.2-1.2-0.4-2.4-0.5-3.6c0,0,0.2,0.3,0.2,0.3c0-0.6,0-1.1,0-1.7
		c0,0-0.2,0.2-0.2,0.2C1027,623.7,1028.1,623.1,1029.2,622.5z"/>
	<polygon class="st1" points="802.2,897.2 802.6,897.2 802.5,897 	"/>
	<path class="st1" d="M1027.6,605.5c-0.6-0.8-1.1-1.7-1.7-2.5C1026.5,603.9,1027,604.7,1027.6,605.5z"/>
	<path class="st1" d="M1022.1,589.7c0.4-0.6,0.7-1.2,1.1-1.8c0,0-0.3,0.3-0.3,0.3c0.5,0.5,1.1,1.1,1.6,1.6c0,0,0.2-0.2,0.2-0.2
		C1023.9,589.6,1023,589.7,1022.1,589.7z"/>
	<path class="st1" d="M444.7,1006.7c0.2-1.1,0.5-2.2,0.7-3.3c0.5,0.4,1,0.8,1.5,1.1c-0.7,0.7-1.4,1.4-2.1,2.1
		C444.9,1006.6,444.7,1006.7,444.7,1006.7z"/>
	<path class="st1" d="M1025.4,579.1c-1.1,0-2.2,0-3.3,0C1023.2,579.1,1024.3,579.1,1025.4,579.1z"/>
	<path class="st1" d="M1572,652.3c0,0-0.1-0.4,0-0.5C1571.9,651.8,1572,652.3,1572,652.3z"/>
	<path class="st1" d="M1029.1,587.5c-0.6-0.3-1.1-0.6-1.7-0.8c0.6-0.8,1.1-1.6,1.7-2.5C1029.1,585.3,1029.1,586.4,1029.1,587.5z"/>
	<path class="st1" d="M447.1,1004.4c-0.6-0.3-1.2-0.6-1.8-0.9C446,1003.9,446.5,1004.2,447.1,1004.4z"/>
	<path class="st1" d="M657.8,747c1.3,0.7,2.5,1.4,2.8,1.6c-2,2.1-4.3,4.5-6.6,6.9c-1.5,0.7-3,1.5-4.5,2.2c-3.7-0.9-7.4-1.8-11-2.7
		c1.7-6.8,7.2-8.2,13.9-3.6C654.2,749.9,656,748.5,657.8,747z"/>
	<path class="st1" d="M1010.5,994.5c-2.1,1.1-4.2,3.2-6.2,3c-8.2-0.7-16.3-2-24.5-3.1c0.1-0.7,0.2-1.4,0.3-2.1
		c1.1-0.1,2.2-0.2,3.3-0.2c0,0-0.3,0-0.3,0c3.8-0.4,7.7-0.9,11.5-1.3C1000,992,1005.3,993.2,1010.5,994.5z"/>
	<path class="st1" d="M246.7,1006.1c2.6,2.1,5.2,4.2,8.3,6.8c-5,1.2-9.7,5.7-17,3.2c3.6-4.1,6.3-7,8.9-10
		C246.9,1006.2,246.7,1006.1,246.7,1006.1z"/>
	<path class="st1" d="M503.6,1003.7c-0.5-0.6-0.9-1.1-2.6-3.1c2.7,1.5,3.9,2.2,5.2,2.9C505.3,1003.5,504.5,1003.6,503.6,1003.7z"/>
	<path class="st1" d="M955.3,565.6c-0.4,0.3-0.8,0.5-1.2,0.8C954.4,566.2,954.8,565.9,955.3,565.6z"/>
	<path class="st1" d="M1052.7,936.1c0,0-0.3-0.1-0.3-0.1C1052.5,936,1052.7,936.1,1052.7,936.1
		C1052.7,936.1,1052.7,936.1,1052.7,936.1z"/>
	<path class="st1" d="M1054.5,933.3c0.4,0.4,0.4,0.7,0,1.1c0,0-0.1-0.2-0.1-0.2C1054.4,933.9,1054.5,933.6,1054.5,933.3z"/>
	<polygon class="st1" points="953.2,566.9 953.5,567.4 953.5,567 	"/>
	<path class="st1" d="M713.6,764.6l0.4-0.4c0,0-0.4,0.2-0.4,0.2C713.6,764.4,713.6,764.6,713.6,764.6z"/>
	<path class="st1" d="M34.7,1016c5.1,0,8.9,0,12.6,0c0.1,0.7,0.2,1.4,0.2,2.2c-2.6,0.3-5.2,0.7-8.2,1.1c-0.2,1.2-0.6,3.1-0.9,4.9
		c-0.8,0.1-1.6,0.2-2.4,0.3C35.6,1021.7,35.1,1018.8,34.7,1016z"/>
	<path class="st1" d="M51.3,925.2c-7.2,6.7-14,2.7-23.6-1.9c3.6-1.7,5.5-2.9,7.6-3.6c4.2-1.5,8.5-2.7,12.7-4.1c1,3.1,2,6.5,3,9.8
		C51.1,925.4,51.3,925.2,51.3,925.2z"/>
	<path class="st1" d="M23.9,901.6c5.6,0.5,11.2,1,16.8,1.5c-0.3,1.3-0.9,2.7-0.8,4c0.8,7.2-2.6,7.1-9.2,4.4c2.3-1.3,3.8-2.1,5.1-2.8
		C31.4,906,27.6,903.8,23.9,901.6z"/>
	<path class="st1" d="M1528.5,773.5c2.3,1.4,4.7,2.9,7.4,4.5c-1.3,0.8-2.9,1.7-4.6,2.7c0,0,0,0.7,0,0.7c-2.5,1-5,2.2-7.6,3
		c-3.7,1.2-5.8,0.1-5.5-4.1c1.3-2.1,2.7-4.2,4-6.4c0,0-0.5,0.2-0.5,0.2c2.2-0.3,4.3-0.6,6.5-0.8
		C1528.5,773.3,1528.5,773.4,1528.5,773.5z"/>
	<path class="st1" d="M1551.1,786.8c-1.8,0.5-3.9,1.9-5.4,1.4c-4.5-1.6-8.8-3.9-13.2-5.9c-0.4-0.3-0.8-0.6-1.2-0.9c0,0,0-0.7,0-0.7
		C1537.9,782.7,1544.5,784.8,1551.1,786.8z"/>
	<path class="st1" d="M1515.2,1080c0.8,0.7,1.5,1.4,2.3,2.1c-0.9-0.7-1.7-1.3-2.6-1.9l0.2-0.2L1515.2,1080z"/>
	<path class="st1" d="M1520.2,1080.4c0-0.4-0.1-0.7-0.1-1.1c-0.1,0.3-0.1,0.6-0.2,1C1520,1080.3,1520.2,1080.4,1520.2,1080.4z"/>
	<path class="st1" d="M1606.7,238.9c0,0,0.2-0.2,0.2-0.2C1607,238.7,1606.7,238.9,1606.7,238.9z"/>
	<path class="st1" d="M1611.5,240.8c-0.2,0-0.4,0.1-0.6,0.1c0.2,0,0.4,0.1,0.6,0.1C1611.5,241,1611.5,240.8,1611.5,240.8z"/>
	<path class="st1" d="M1516.9,1075.4c0,0-0.2-0.3-0.2-0.3C1516.7,1075.1,1516.9,1075.4,1516.9,1075.4z"/>
	<path class="st1" d="M1514.8,1080.2c0,0,0.2-0.2,0.2-0.2S1514.8,1080.2,1514.8,1080.2z"/>
	<path class="st1" d="M1606.9,235.5c0,0-0.2-0.4-0.2-0.4C1606.7,235.1,1606.9,235.5,1606.9,235.5z"/>
	<path class="st1" d="M144.7,988.7c3.8,0.4,7.8,0.6,11.6,1.2c1.2,0.2,2.2,1.4,3.3,2.2c-0.8,1.1-1.4,2.7-2.5,3.1
		c-4.9,1.9-9.9,3.5-14.8,5.2c-0.4-0.7-0.8-1.5-1.2-2.2c1.2-1.3,2.9-2.4,3.5-3.9C145.2,992.8,144.7,990.8,144.7,988.7z"/>
	<path class="st1" d="M174.8,1013c-1.9-3.9-3.3-6.8-4.7-9.6c0.8-0.3,1.5-0.7,2.3-1c1.4,2.2,2.7,4.4,4.3,7c2.1-1,4.1-2,6.1-3
		c0,0.8,0,1.7,0,2.5c3.1,0.4,6.1,0.7,9.2,1.1c0.1,0.3,0.1,0.6,0.2,0.9C186.3,1011.5,180.5,1012.3,174.8,1013z"/>
	<path class="st1" d="M1034.3,970.7c-3.2,0.9-6.6,1.4-9.6,2.8c-1.2,0.6-1.6,3.1-2.4,4.7c-1.9,0-3.8-0.1-5.6-0.1
		c-3.7,0-7.5,0-11.2-0.1c-0.7-0.9-1.3-1.9-2-2.8l-0.2,0.2c7.7-1.6,15.3-3.2,23-4.8c2.4-0.5,4.8-1,7.3-1.6
		C1033.8,969.6,1034.1,970.1,1034.3,970.7z"/>
	<path class="st1" d="M1026.2,586.7c-1.1,0-2.2,0-3.3,0C1024,586.7,1025.1,586.7,1026.2,586.7z"/>
	<path class="st1" d="M174.5,951.5c6.8-4.8,12.9-4.4,18,0.9C187,952.1,180.3,951.8,174.5,951.5z"/>
	<path class="st1" d="M1005.5,978c3.7,0,7.5,0,11.2,0.1c-1.4,3.5-2.8,7-4.6,11.5c5.8-1,12.1-3.2,10.1,7.2c-3.9-0.8-7.8-1.5-11.7-2.3
		c-5.3-1.3-10.5-2.5-15.8-3.7c1.7-1.1,3.3-3.2,5.1-3.3C1006.6,986.9,1007.5,983.4,1005.5,978z"/>
	<path class="st1" d="M1003.5,975.2c-8-1.7-16.1-3.4-24.1-5.1c0.3-1,0.6-2.1,0.9-3.1c7.7,2.8,15.4,5.7,23.1,8.5
		C1003.3,975.4,1003.5,975.2,1003.5,975.2z"/>
	<path class="st1" d="M267.6,911.5c8.6-7.7,10.8,2.3,16.1,1.4c-0.3,1-0.6,2.1-0.9,3.1C278.1,914.6,273.4,913.2,267.6,911.5z"/>
	<path class="st1" d="M654.2,732.3c-2.1,2.5-4.1,5.2-6.3,7.6c-0.8,0.8-2.4,1.6-3.3,1.3c-7.6-2.6-11.7,3.6-17.2,6.4
		C633.2,736.7,644,734.7,654.2,732.3z"/>
	<path class="st1" d="M355.6,1020c3.1-1,6.3-2.1,9.8-3.3c0,4,0,7.6,0,11.7c-6.6,0-12.9,0-19.6,0c3.5-3,6.7-5.9,10-8.7
		C355.9,1019.7,355.6,1020,355.6,1020z"/>
	<path class="st1" d="M720,757.5c0,0.6,0,1.2,0,1.8c-0.1-0.4-0.3-0.8-0.3-1.2C719.7,757.9,719.9,757.7,720,757.5z"/>
	<path class="st1" d="M1528.5,773.5c0-0.1-0.1-0.1-0.2-0.2c1-1.1,1.9-2.2,3.3-3.7c-1.7-0.9-3.6-2-7.3-3.9c6.2-0.8,10.6-1.4,16.1-2.1
		c-1.5,2.1-2.4,3.3-4.3,5.9c2.9-1.3,4.4-2,5.9-2.6c0.1,0.5,0.4,1.1,0.3,1.3C1538.8,772.3,1534.7,775.5,1528.5,773.5z"/>
	<path class="st1" d="M1521.9,774.1c0,0,0.5-0.2,0.5-0.2S1521.9,774.1,1521.9,774.1z"/>
</g>
</svg>
